SplineFontDB: 3.2
FontName: ThuesdayDoList
FullName: ThuesdayDoList
FamilyName: ThuesdayDoList
Weight: Regular
Copyright: No Copyright (c) 2020 Met Sender / Mehmet PINARCI
UComments: "Tuesday Do List"
Version: 001.000
ItalicAngle: 0
UnderlinePosition: -102
UnderlineWidth: 51
Ascent: 819
Descent: 205
InvalidEm: 0
LayerCount: 2
Layer: 0 0 "Back" 1
Layer: 1 0 "Fore" 0
XUID: [1021 66 1585159542 11316]
FSType: 0
OS2Version: 0
OS2_WeightWidthSlopeOnly: 0
OS2_UseTypoMetrics: 1
CreationTime: 1582580171
ModificationTime: 1582596453
PfmFamily: 17
TTFWeight: 400
TTFWidth: 5
LineGap: 92
VLineGap: 0
OS2TypoAscent: 0
OS2TypoAOffset: 1
OS2TypoDescent: 0
OS2TypoDOffset: 1
OS2TypoLinegap: 92
OS2WinAscent: 0
OS2WinAOffset: 1
OS2WinDescent: 0
OS2WinDOffset: 1
HheadAscent: 0
HheadAOffset: 1
HheadDescent: 0
HheadDOffset: 1
OS2Vendor: 'PfEd'
MarkAttachClasses: 1
DEI: 91125
LangName: 1033
Encoding: ISO8859-1
UnicodeInterp: none
NameList: AGL For New Fonts
DisplaySize: -48
AntiAlias: 1
FitToEm: 0
WinInfo: 0 38 14
BeginPrivate: 0
EndPrivate
Grid
-1024 395.263671875 m 0
 2048 395.263671875 l 1024
  Named: "tall X height"
281.599609375 1331.20019531 m 0
 281.599609375 -716.799804688 l 1024
  Named: "symet line"
EndSplineSet
TeXData: 1 0 1049 373293 186647 124431 401368 1048576 124431 783286 444596 497025 792723 393216 433062 380633 303038 157286 324010 404750 52429 2506097 1059062 262144
BeginChars: 256 95

StartChar: A
Encoding: 65 65 1
Width: 531
VWidth: 0
Flags: HW
LayerCount: 2
Fore
SplineSet
-15 158 m 1
 -15 159 -15 213 -15 214 c 2
 -11 214 l 2
 56 214 141 303 221 412 c 1
 213 420 207 428 201 435 c 0
 200 435 165 453 164 453 c 0
 163 453 117 453 116 453 c 1
 116 454 116 507 116 508 c 2
 180 510 l 1
 228 510 l 1
 237 494 247 479 258 465 c 1
 368 628 459 811 459 811 c 2
 507 811 l 1
 507 756 l 2
 507 691 504 625 503 559 c 0
 503 558 503 511 503 510 c 0
 503 437 486 364 479 291 c 0
 479 290 476 237 476 236 c 0
 476 235 475 194 475 193 c 0
 475 192 474 150 474 149 c 0
 474 148 468 97 468 96 c 0
 468 95 466 43 466 41 c 2
 466 41 l 2
 466 40 466 10 466 9 c 2
 418 9 l 2
 417 8 415 39 415 39 c 0
 415 197 336 294 271 361 c 1
 191 250 105 158 37 158 c 2
 33 158 l 2
 32 158 -14 158 -15 158 c 1
455 565 m 0
 455 566 456 657 456 658 c 1
 420 594 365 498 305 409 c 1
 357 352 411 303 427 248 c 1
 427 249 428 290 428 291 c 0
 428 292 431 345 431 346 c 0
 438 419 455 492 455 565 c 0
EndSplineSet
Validated: 5
EndChar

StartChar: B
Encoding: 66 66 2
Width: 517
VWidth: 0
Flags: HW
LayerCount: 2
Fore
SplineSet
-11 54 m 1
 -11 55 -11 102 -11 103 c 0
 -5 119 2 135 8 151 c 0
 7 151 6 153 5 153 c 2
 -40 155 l 2
 -40 156 -40 203 -40 204 c 1
 -39 204 8 204 9 204 c 0
 9 204 18 204 28 204 c 1
 65 305 99 411 131 514 c 0
 165 623 175 785 320 785 c 2
 369 785 l 2
 461 785 478 705 478 624 c 2
 478 574 l 2
 478 518 473 512 380 456 c 1
 473 446 495 353 495 260 c 2
 495 210 l 2
 495 108 441 36 340 36 c 2
 291 36 l 2
 221 36 138 86 65 124 c 1
 56 100 47 77 38 54 c 0
 37 54 -10 54 -11 54 c 1
88 186 m 1
 150 152 219 107 317 86 c 1
 360 96 426 118 446 236 c 1
 440 305 492 393 231 393 c 1
 231 443 l 2
 231 444 241 457 242 458 c 0
 283 490 373 500 429 601 c 1
 427 623 430 703 344 734 c 1
 245 706 219 592 180 465 c 0
 151 373 121 277 88 186 c 1
EndSplineSet
Validated: 33
EndChar

StartChar: C
Encoding: 67 67 3
Width: 525
VWidth: 0
Flags: HW
LayerCount: 2
Fore
SplineSet
471 500 m 1
 471 501 471 548 471 549 c 0
 477 585 360 681 275 695 c 0
 275 695 268 695 261 696 c 0
 258 696 256 696 256 696 c 0
 81 657 56 447 50 347 c 1
 67 174 146 98 280 83 c 0
 280 83 282 82 285 82 c 0
 291 83 306 84 306 84 c 1
 387 116 374 157 426 198 c 1
 445 269 l 2
 446 269 490 269 491 269 c 1
 491 268 491 221 491 220 c 2
 472 148 l 1
 415 103 417 31 321 31 c 2
 275 31 l 2
 274 31 235 33 234 33 c 0
 89 50 2 157 2 325 c 2
 2 374 l 2
 2 524 60 748 238 748 c 2
 284 748 l 2
 285 748 320 745 321 745 c 0
 410 730 518 665 518 561 c 2
 518 512 l 1
 517 500 l 2
 516 500 472 500 471 500 c 1
EndSplineSet
Validated: 33
EndChar

StartChar: D
Encoding: 68 68 4
Width: 511
VWidth: 0
Flags: HW
LayerCount: 2
Fore
SplineSet
-14 32 m 1
 -14 33 -14 82 -14 83 c 0
 32 260 67 557 83 673 c 1
 83 716 86 697 86 714 c 0
 86 715 86 745 86 746 c 0
 86 747 86 755 87 755 c 2
 138 755 l 2
 139 755 140 744 140 729 c 1
 140 729 272 767 279 767 c 2
 330 767 l 2
 501 767 516 565 516 437 c 2
 516 386 l 2
 516 205 404 50 217 50 c 2
 166 50 l 2
 126 50 101 65 68 73 c 1
 47 96 100 81 60 132 c 1
 53 98 45 64 37 32 c 0
 36 32 -13 32 -14 32 c 1
197 103 m 1
 351 116 446 227 465 413 c 1
 463 481 467 673 309 715 c 1
 295 711 199 670 135 647 c 1
 115 507 96 318 63 149 c 1
 96 149 l 1
 119 124 l 1
 146 118 168 107 197 103 c 1
EndSplineSet
Validated: 33
EndChar

StartChar: E
Encoding: 69 69 5
Width: 471
VWidth: 0
Flags: HW
LayerCount: 2
Fore
SplineSet
206 96 m 2
 196 96 186 96 176 96 c 2
 206 96 l 2
218 96 m 0
 157 94 98 83 50 44 c 1
 -1 44 l 1
 -1 95 l 2
 -1 96 1 118 1 119 c 0
 9 201 -5 108 21 267 c 0
 19 272 17 278 15 283 c 0
 15 284 7 328 7 329 c 2
 7 380 l 2
 7 418 27 441 55 455 c 1
 87 617 110 718 130 718 c 2
 208 718 l 2
 290 720 374 720 454 738 c 0
 455 738 504 738 505 738 c 1
 505 737 505 688 505 687 c 0
 425 669 341 669 259 667 c 2
 181 667 l 2
 170 667 148 587 123 474 c 1
 137 476 152 477 166 478 c 0
 167 478 209 479 210 479 c 2
 261 479 l 2
 262 479 297 478 298 478 c 0
 325 478 351 475 378 474 c 1
 384 470 l 2
 384 469 384 420 384 419 c 1
 383 419 334 419 333 419 c 2
 327 423 l 1
 300 424 274 427 247 427 c 2
 247 427 244 427 240 427 c 0
 229 427 218 427 217 427 c 0
 124 423 197 434 99 358 c 1
 95 338 91 317 87 296 c 1
 177 176 450 161 453 152 c 2
 453 101 l 2
 453 100 447 98 446 98 c 0
 445 98 420 95 419 95 c 0
 418 95 374 93 373 93 c 2
 321 93 l 2
 320 93 274 94 273 94 c 0
 255 95 237 96 218 96 c 0
70 208 m 1
 67 192 64 176 61 160 c 0
 61 159 56 108 53 74 c 1
 58 84 66 54 66 99 c 1
 162 124 112 146 176 147 c 0
 261 147 174 155 174 155 c 1
 128 174 95 190 70 208 c 1
EndSplineSet
Validated: 1
EndChar

StartChar: F
Encoding: 70 70 6
Width: 457
VWidth: 0
Flags: HW
LayerCount: 2
Fore
SplineSet
448 801 m 1
 448 800 448 742 448 741 c 0
 359 729 169 688 145 686 c 1
 145 685 144 590 144 589 c 2
 144 551 l 1
 168 571 197 582 231 582 c 2
 281 582 l 2
 312 582 335 567 366 558 c 1
 398 532 l 2
 398 531 398 474 398 473 c 1
 397 473 350 473 349 473 c 2
 317 499 l 2
 316 499 254 522 253 522 c 0
 216 508 218 560 137 403 c 1
 124 261 95 105 68 10 c 1
 19 10 l 1
 19 86 15 338 89 481 c 1
 97 562 93 499 94 572 c 1
 86 617 55 703 55 703 c 1
 55 763 l 1
 169 770 284 786 398 801 c 0
 399 801 447 801 448 801 c 1
EndSplineSet
Validated: 33
EndChar

StartChar: G
Encoding: 71 71 7
Width: 473
VWidth: 0
Flags: HW
LayerCount: 2
Fore
SplineSet
427.599609375 525.809570312 m 1
 441.6796875 525.809570312 313.200195312 698.0703125 220.799804688 709.950195312 c 0
 220.799804688 709.950195312 217.280273438 710.940429688 212.879882812 710.940429688 c 0
 207.599609375 710.940429688 202.3203125 709.950195312 202.3203125 709.950195312 c 0
 87.919921875 682.23046875 57.1201171875 595.110351562 47.4404296875 491.16015625 c 0
 47.4404296875 490.169921875 46.5595703125 474.330078125 45.6796875 462.450195312 c 0
 55.3603515625 264.450195312 110.799804688 105.059570312 270.959960938 79.3203125 c 0
 270.959960938 79.3203125 278 79.3203125 285.040039062 78.330078125 c 0
 291.200195312 78.330078125 297.360351562 79.3203125 297.360351562 79.3203125 c 0
 394.16015625 111 398.559570312 193.169921875 401.200195312 282.26953125 c 0
 401.200195312 282.26953125 306.16015625 248.610351562 286.799804688 242.669921875 c 1
 216.400390625 240.690429688 l 2
 215.51953125 240.690429688 172.400390625 240.690429688 171.51953125 240.690429688 c 1
 171.51953125 241.6796875 171.51953125 290.190429688 171.51953125 291.1796875 c 2
 241.919921875 293.16015625 l 1
 271.83984375 302.0703125 366.879882812 339.690429688 393.280273438 339.690429688 c 2
 438.16015625 339.690429688 l 2
 439.040039062 339.690429688 446.080078125 337.709960938 446.959960938 337.709960938 c 0
 446.959960938 336.719726562 446.959960938 326.8203125 446.959960938 325.830078125 c 2
 446.959960938 274.349609375 l 2
 446.959960938 273.360351562 446.959960938 232.76953125 446.959960938 231.780273438 c 0
 443.440429688 130.799804688 424.080078125 25.8603515625 314.080078125 25.8603515625 c 2
 268.3203125 25.8603515625 l 2
 267.440429688 25.8603515625 226.959960938 28.830078125 226.080078125 28.830078125 c 0
 51.83984375 56.5498046875 -0.080078125 256.530273438 -0.080078125 446.610351562 c 2
 -0.080078125 498.08984375 l 2
 -0.080078125 499.080078125 1.6796875 540.66015625 1.6796875 541.650390625 c 0
 12.240234375 657.48046875 65.919921875 763.41015625 185.599609375 763.41015625 c 2
 230.48046875 763.41015625 l 2
 231.360351562 763.41015625 265.6796875 761.4296875 266.559570312 761.4296875 c 0
 373.040039062 747.5703125 474.240234375 669.360351562 474.240234375 534.719726562 c 0
 474.240234375 533.73046875 474.240234375 517.889648438 474.240234375 516.900390625 c 2
 474.240234375 483.240234375 l 1
 474.240234375 483.240234375 474.240234375 478.290039062 474.240234375 477.299804688 c 0
 473.360351562 476.309570312 472.48046875 474.330078125 472.48046875 475.3203125 c 2
 427.599609375 475.3203125 l 2
 427.599609375 476.309570312 427.599609375 524.8203125 427.599609375 525.809570312 c 1
EndSplineSet
Validated: 524321
EndChar

StartChar: H
Encoding: 72 72 8
Width: 453
VWidth: 0
Flags: HW
LayerCount: 2
Fore
SplineSet
465 587 m 1
 465 586 465 529 465 528 c 0
 349 448 202 401 82 340 c 0
 81 340 26 340 25 340 c 1
 25 341 25 398 25 399 c 0
 145 460 292 507 408 587 c 0
 409 587 464 587 465 587 c 1
335 806 m 1
 336 806 391 806 392 806 c 2
 394 784 l 1
 394 725 l 2
 394 507 358 302 339 88 c 1
 332 31 l 2
 331 31 276 31 275 31 c 1
 275 32 275 90 275 91 c 2
 282 148 l 1
 299 347 330 521 336 731 c 1
 335 746 l 2
 335 747 335 805 335 806 c 1
66 722 m 2
 67 722 123 722 124 722 c 2
 124 703 l 1
 124 644 l 2
 125 442 116 233 55 43 c 0
 54 43 -2 43 -3 43 c 1
 -3 44 -3 101 -3 102 c 0
 58 292 67 501 66 703 c 2
 66 722 l 2
EndSplineSet
Validated: 37
EndChar

StartChar: I
Encoding: 73 73 9
Width: 281
VWidth: 0
Flags: HW
LayerCount: 2
Fore
SplineSet
219 749 m 1
 219 748 219 698 219 697 c 0
 185 543 125 305 113 203 c 0
 113 202 110 158 110 157 c 2
 110 105 l 1
 104 58 l 2
 103 58 54 58 53 58 c 1
 53 59 53 109 53 110 c 0
 53 111 57 134 57 135 c 2
 57 135 59 132 59 169 c 2
 59 220 l 1
 72 399 130 575 168 749 c 0
 169 749 218 749 219 749 c 1
8 60 m 1
 8 61 8 111 8 112 c 2
 192 112 l 2
 193 112 242 112 243 112 c 1
 243 111 243 61 243 60 c 2
 59 60 l 2
 58 60 9 60 8 60 c 1
4 697 m 1
 4 698 4 748 4 749 c 2
 211 749 l 2
 212 749 261 749 262 749 c 1
 262 748 262 698 262 697 c 2
 55 697 l 2
 54 697 5 697 4 697 c 1
EndSplineSet
Validated: 37
EndChar

StartChar: J
Encoding: 74 74 10
Width: 351
VWidth: 0
Flags: HW
LayerCount: 2
Fore
SplineSet
70 742 m 1
 71 742 120 742 121 742 c 0
 183 737 287 741 346 728 c 1
 346 677 l 2
 346 586 345 76 218 12 c 0
 217 12 191 5 190 5 c 2
 139 5 l 1
 74 10 26 66 -12 116 c 0
 -12 117 -12 166 -12 167 c 1
 -11 167 38 167 39 167 c 0
 74 121 73 104 161 61 c 0
 164 62 166 63 166 63 c 0
 277 119 293 503 295 679 c 1
 237 685 132 686 70 691 c 0
 70 692 70 741 70 742 c 1
EndSplineSet
Validated: 1
EndChar

StartChar: K
Encoding: 75 75 11
Width: 410
VWidth: 0
Flags: HW
LayerCount: 2
Fore
SplineSet
409 779 m 1
 409 778 409 726 409 725 c 0
 332 586 276 530 137 406 c 1
 336 374 334 159 394 75 c 0
 394 74 394 21 394 20 c 1
 393 20 342 20 341 20 c 0
 288 94 253 295 120 357 c 1
 120 357 84 356 52 350 c 1
 27 336 3 322 3 322 c 2
 -51 322 l 1
 -51 377 l 2
 -51 395 -26 399 9 402 c 1
 34 415 58 430 81 447 c 0
 201 536 285 653 355 779 c 0
 356 779 408 779 409 779 c 1
190 753 m 1
 190 752 190 700 190 699 c 0
 168 499 127 313 74 123 c 1
 67 53 l 2
 66 53 15 53 14 53 c 1
 14 54 14 106 14 107 c 2
 20 177 l 1
 73 367 114 553 136 753 c 0
 137 753 189 753 190 753 c 1
EndSplineSet
Validated: 5
EndChar

StartChar: L
Encoding: 76 76 12
Width: 367
VWidth: 0
Flags: HW
LayerCount: 2
Fore
SplineSet
135 785 m 1
 136 785 185 785 186 785 c 2
 186 720 l 1
 186 669 l 2
 186 487 82 300 55 130 c 1
 59 130 62 130 62 130 c 2
 113 130 l 2
 114 130 146 128 147 128 c 0
 192 128 244 121 292 118 c 0
 293 118 306 66 307 62 c 1
 307 66 305 121 305 122 c 0
 306 122 355 122 356 122 c 1
 355 121 359 114 359 113 c 1
 358 113 360 61 359 61 c 0
 358 61 343 61 342 61 c 2
 307 61 l 2
 308 60 287 64 286 64 c 0
 285 64 242 66 241 66 c 0
 193 69 141 77 96 77 c 0
 95 77 71 77 70 77 c 0
 69 76 49 57 49 56 c 2
 -3 56 l 1
 -3 56 l 1
 -3 107 l 2
 -3 108 0 150 0 151 c 0
 18 329 135 527 135 720 c 2
 135 734 l 2
 135 735 135 784 135 785 c 1
EndSplineSet
Validated: 37
EndChar

StartChar: M
Encoding: 77 77 13
Width: 483
VWidth: 0
Flags: HW
LayerCount: 2
Fore
SplineSet
-20 43 m 1
 -20 44 -14 93 -14 94 c 0
 50 299 46 544 140 749 c 1
 191 743 l 2
 224 739 193 416 207 342 c 1
 207 342 421 761 451 757 c 2
 501 751 l 2
 507 750 505 715 500 672 c 2
 494 621 l 2
 487 557 473 478 473 478 c 0
 445 331 386 173 341 38 c 0
 340 38 291 45 290 45 c 1
 290 46 296 95 296 96 c 0
 341 231 401 388 429 535 c 0
 429 535 442 614 449 678 c 2
 447 665 l 1
 388 561 268 268 208 276 c 2
 157 283 l 2
 156 283 149 297 149 298 c 0
 139 350 149 476 149 601 c 1
 120 511 81 196 31 36 c 0
 30 36 -19 43 -20 43 c 1
EndSplineSet
Validated: 33
EndChar

StartChar: N
Encoding: 78 78 14
Width: 429
VWidth: 0
Flags: HW
LayerCount: 2
Fore
SplineSet
-24 50 m 1
 -24 51 -24 100 -24 101 c 0
 15 302 32 525 97 728 c 1
 148 728 l 2
 200 728 271 171 290 130 c 1
 340 254 354 669 365 744 c 2
 371 781 l 2
 372 781 422 781 423 781 c 1
 423 780 423 731 423 730 c 2
 416 693 l 2
 404 610 392 46 320 46 c 2
 269 46 l 2
 268 46 250 55 249 55 c 0
 179 123 190 418 135 633 c 1
 106 528 60 223 27 50 c 0
 26 50 -23 50 -24 50 c 1
EndSplineSet
Validated: 1
EndChar

StartChar: O
Encoding: 79 79 15
Width: 472
VWidth: 0
Flags: HW
LayerCount: 2
Fore
SplineSet
328 794 m 2
 345 790 l 1
 403 684 479 648 479 487 c 2
 479 436 l 2
 479 435 478 400 478 399 c 0
 469 254 441 34 273 34 c 2
 222 34 l 2
 221 34 177 37 176 37 c 0
 17 62 -15 221 -15 378 c 2
 -15 429 l 2
 -15 430 -14 468 -14 469 c 0
 -7 620 43 800 230 800 c 2
 282 800 l 2
 283 800 314 799 315 799 c 0
 315 799 322 797 328 794 c 2
427 449 m 0
 426 457 426 472 426 472 c 1
 397 624 356 636 300 728 c 1
 294 728 l 1
 294 734 l 2
 294 735 285 739 277 743 c 2
 269 744 l 1
 269 746 l 2
 267 747 266 748 265 748 c 0
 262 747 241 746 241 746 c 0
 81 715 44 555 37 418 c 0
 37 417 36 408 36 398 c 0
 43 234 82 111 227 88 c 0
 227 88 236 88 245 87 c 0
 249 87 252 88 252 88 c 0
 411 127 418 315 427 449 c 0
EndSplineSet
Validated: 1
EndChar

StartChar: P
Encoding: 80 80 16
Width: 464
VWidth: 0
Flags: HW
LayerCount: 2
Fore
SplineSet
76 677 m 1
 76 678 76 728 76 729 c 0
 106 770 204 759 256 772 c 1
 307 772 l 2
 385 772 463 722 463 643 c 2
 463 592 l 2
 463 377 171.934764106 376 57 376 c 0
 56 376 7 376 6 376 c 1
 6 377 5.105572809 426.552786405 6 427 c 0
 104 476 389 435 410 616 c 1
 404 662 339 711 300 717 c 1
 261 714 154 714 127 677 c 0
 126 677 77 677 76 677 c 1
54 41 m 0
 53 42 l 1
 53 39 53 36 53 36 c 1
 52 36 3 36 2 36 c 1
 2 37 2 86 2 87 c 1
 3 86 52 37 53 36 c 1
 53 36 53 38 54 41 c 0
54 41 m 0
 58 56 71 101 71 102 c 1
 71 101 71 86 71 85 c 2
 71 51 l 2
 70 50 57 40 56 39 c 0
 56 39 55 40 54 41 c 0
192 804 m 1
 192 790 l 2
 192 577 59 304.635810312 59 103 c 0
 59 102 53 42 53 42 c 0
 42 53 5 90 4 91 c 0
 4 92 5 98 5 99 c 0
 5 100 6 107 6 108 c 0
 6 109 7.92064901579 153.003153261 8 154 c 0
 24 355 141 628 141 841 c 2
 141 838 l 1
 141 804 l 1
 141 800 l 1
 146 804 l 1
 141 804 l 1
 141 800 l 1
 146 804 l 1
 192 804 l 1
EndSplineSet
Validated: 524325
EndChar

StartChar: Q
Encoding: 81 81 17
Width: 498
VWidth: 0
Flags: HW
LayerCount: 2
Fore
SplineSet
177 327 m 1
 178 327 227 327 228 327 c 2
 228 323 l 1
 293 245 392 177 439 83 c 0
 439 82 439 33 439 32 c 1
 438 32 389 32 388 32 c 0
 341 126 242 193 177 271 c 1
 177 275 l 2
 177 276 177 326 177 327 c 1
503 467 m 1
 505 470 506 472 507 476 c 1
 507 475 507 426 507 425 c 2
 498 396 l 1
 417 286 437 32 230 32 c 2
 179 32 l 2
 178 32 136 36 135 36 c 0
 40 55 -5 138 -5 243 c 2
 -5 294 l 2
 -5 295 -5 327 -5 328 c 0
 -3 485 19 771 224 771 c 2
 275 771 l 2
 276 771 321 768 322 768 c 0
 453 749 505 646 505 505 c 0
 505 470 503 534 503 467 c 1
203 85 m 0
 208 85 213 86 213 86 c 1
 400 134 370 342 447 447 c 0
 448 449 449 452 451 453 c 2
 451 470 l 2
 451 471 452 476 453 481 c 0
 453 487 452 493 452 493 c 1
 441 621 388 700 271 717 c 0
 271 717 263 717 254 718 c 0
 249 718 245 717 245 717 c 1
 56 673 48 424 46 277 c 0
 46 277 46 275 46 272 c 1
 46 290 47 255 47 255 c 1
 60 163 106 103 187 87 c 0
 187 87 194 86 203 85 c 0
453 487 m 1
 453 487 l 0
 453 488 453 504 453 505 c 1
 453 498 453 492 453 487 c 1
EndSplineSet
Validated: 37
EndChar

StartChar: R
Encoding: 82 82 18
Width: 480
VWidth: 0
Flags: HW
LayerCount: 2
Fore
SplineSet
339 792 m 0
 423 792 484 723 484 638 c 2
 484 587 l 2
 484 473 402 418 303 393 c 1
 407 304 450 115 462 101 c 1
 474 77 l 2
 474 76 474 27 474 26 c 1
 473 26 424 26 423 26 c 2
 410 50 l 1
 327 152 382 211 187 375 c 1
 149 372 113 372 81 372 c 2
 29 372 l 1
 11 376 l 2
 11 427 l 2
 11 428 39 438 40 438 c 0
 41 438 95 440 96 440 c 2
 147 440 l 2
 148 440 186 439 187 439 c 0
 197 439 207 439 216 437 c 0
 334 458 403 484 432 610 c 1
 424 641 410 709 313 739 c 0
 303 738 292 738 292 738 c 0
 214 729 134 694 91 628 c 0
 90 628 40 628 40 628 c 0
 40 629 40 678 40 679 c 0
 83 745 162 785 241 789 c 0
 242 789 338 792 339 792 c 0
113 781 m 2
 114 781 164 781 165 781 c 2
 165 757 l 1
 165 706 l 2
 165 479 86 244 50 32 c 1
 46 19 l 2
 45 19 -4 19 -5 19 c 1
 -5 20 -5 70 -5 71 c 2
 -1 83 l 1
 35 295 113 530 113 757 c 2
 113 781 l 2
EndSplineSet
Validated: 5
EndChar

StartChar: S
Encoding: 83 83 19
Width: 487
VWidth: 0
Flags: HW
LayerCount: 2
Fore
SplineSet
372 466 m 1
 372 467 372 512 372 513 c 2
 374 518 l 1
 374 552 388 589 395 626 c 0
 395 626 396 634 397 642 c 0
 397 643 397 644 397 644 c 0
 380 712 350 733 299 743 c 0
 299 743 292 743 285 744 c 0
 282 744 281 744 281 744 c 0
 178 715 140 619 129 534 c 0
 129 534 129 533 129 531 c 0
 130 525 130 518 130 518 c 1
 153 447 189 435 243 428 c 0
 244 428 282 426 283 426 c 0
 284 426 329 426 330 426 c 2
 378 426 l 2
 445 426 481 406 481 339 c 2
 481 292 l 2
 481 131 360 19 205 19 c 2
 157 19 l 2
 67 17 16 103 -16 172 c 0
 -16 173 -16 218 -16 219 c 1
 -15 219 30 219 31 219 c 0
 59 158 84 96 180 66 c 1
 280 79 407 133 433 317 c 1
 424 341 404 379 330 379 c 2
 330 379 l 1
 283 379 l 1
 235 379 l 2
 234 379 197 381 196 381 c 0
 132 389 79 420 79 499 c 2
 79 547 l 2
 79 548 81 580 81 581 c 0
 93 676 153 793 260 793 c 2
 308 793 l 2
 309 793 346 790 347 790 c 0
 408 778 447 735 447 663 c 2
 447 616 l 2
 447 615 443 580 443 579 c 0
 436 542 422 505 422 471 c 2
 422 495 l 2
 422 494 422 472 422 471 c 2
 420 466 l 2
 419 466 373 466 372 466 c 1
EndSplineSet
Validated: 37
EndChar

StartChar: T
Encoding: 84 84 20
Width: 498
VWidth: 0
Flags: HW
LayerCount: 2
Fore
SplineSet
93 771 m 1
 132 771 l 2
 191 771 253 770 314 766 c 0
 319 766 322 765 327 765 c 2
 365 765 l 2
 366 765 390 762 391 762 c 0
 412 759 443 754 469 750 c 0
 478 749 485 747 494 746 c 0
 495 746 517 743 517 743 c 1
 517 709 l 2
 517 708 517 693 517 692 c 1
 516 693 492 692 477 692 c 0
 474 692 470 692 466 692 c 0
 462 693 426 698 389 703 c 0
 377 704 357 707 324 710 c 1
 206 688 258 124 208 27 c 0
 208 26 157 27 156 27 c 1
 156 28 156 77 156 78 c 0
 155 108 129 502 243 716 c 1
 137 721 183 720 42 720 c 2
 34 720 l 2
 33 720 -18 720 -18 720 c 0
 -18 721 -18 770 -18 771 c 1
 -17 771 41 771 42 771 c 2
 76 771 l 1
 93 771 l 1
EndSplineSet
Validated: 33
EndChar

StartChar: U
Encoding: 85 85 21
Width: 512
VWidth: 0
Flags: HW
LayerCount: 2
Fore
SplineSet
96 781 m 1
 96 780 96 731 96 730 c 0
 65 639 51 532 49 428 c 0
 49 417 49 406 49 406 c 0
 49 169 65 91 251 66 c 1
 434 125 455 384 455 535 c 0
 455 536 455 563 455 564 c 0
 455 593 458 623 460 652 c 0
 460 653 461 694 461 695 c 0
 461 708 462 719 463 732 c 2
 465 744 l 2
 466 744 516 744 517 744 c 1
 517 743 517 694 517 693 c 2
 514 681 l 2
 513 668 512 657 512 644 c 0
 512 643 511 601 511 600 c 0
 509 571 506 542 506 513 c 0
 506 512 506 484 506 483 c 0
 505 327 470 10 283 10 c 2
 232 10 l 2
 -13 10 1 141 -2 355 c 0
 -2 356 -3 401 -3 402 c 2
 -3 453 l 2
 -3 565 12 683 45 781 c 0
 46 781 95 781 96 781 c 1
EndSplineSet
Validated: 1
EndChar

StartChar: V
Encoding: 86 86 22
Width: 478
VWidth: 0
Flags: HW
LayerCount: 2
Fore
SplineSet
-12 796 m 1
 -11 796 36 782 37 782 c 0
 138 559 163 316 164 109 c 1
 260 269 385 610 417 674 c 1
 448 701 l 2
 449 701 496 688 497 688 c 1
 497 687 483 640 483 639 c 2
 452 611 l 1
 415 536 210 -21 149 -4 c 2
 99 9 l 2
 98 9 97 23 97 24 c 0
 97 25 99 38 99 39 c 0
 100 44 101 49 101 54 c 0
 105 301 78 518 -26 747 c 0
 -26 748 -12 795 -12 796 c 1
EndSplineSet
Validated: 33
EndChar

StartChar: W
Encoding: 87 87 23
Width: 531
VWidth: 0
Flags: HW
LayerCount: 2
Fore
SplineSet
57 637 m 1
 52 637 44 638 35 641 c 1
 38 654 70 761 71 765 c 2
 88 813 l 1
 104 808 l 1
 137 796 l 1
 137 796 135 792 135 791 c 2
 134 787 l 2
 133 782 134 784 134 784 c 0
 122 752 105 252 103 204 c 1
 141 268 183 335 189 333 c 2
 237 315 l 2
 280 299 259 133 288 64 c 1
 356 -11 423 755 506 725 c 0
 507 725 553 708 554 708 c 1
 554 707 532 640 532 639 c 0
 502 524 421 -54 291 -7 c 2
 243 10 l 2
 242 10 223 32 222 33 c 0
 201 83 197 143 193 233 c 1
 193 233 113 66 86 76 c 2
 38 93 l 2
 37 93 33 103 33 104 c 0
 23 160 17 432 41 595 c 0
 46 616 52 629 57 637 c 1
EndSplineSet
Validated: 33
EndChar

StartChar: X
Encoding: 88 88 24
Width: 447
VWidth: 0
Flags: HW
LayerCount: 2
Fore
SplineSet
4 765 m 1
 5 765 54 765 55 765 c 0
 230 732 237 547 250 409 c 1
 419 100 l 2
 419 99 419 50 419 49 c 1
 418 49 368 49 367 49 c 2
 198 357 l 1
 185 495 179 681 4 714 c 0
 4 715 4 764 4 765 c 1
403 794 m 0
 404 794 453 794 454 794 c 2
 454 787 l 1
 454 736 l 1
 296 516 166 265 53 24 c 0
 52 24 3 24 2 24 c 1
 2 25 2 74 2 75 c 0
 115 317 239 566 403 794 c 0
EndSplineSet
Validated: 5
EndChar

StartChar: Y
Encoding: 89 89 25
Width: 487
VWidth: 0
Flags: HW
LayerCount: 2
Fore
SplineSet
504 808 m 1
 504 807 504 758 504 757 c 0
 362 544 278 292 143 73 c 1
 109 13 l 2
 108 13 63 13 62 13 c 1
 62 14 62 64 62 65 c 2
 96 124 l 1
 231 343 315 595 457 808 c 0
 458 808 503 808 504 808 c 1
-8 785 m 1
 -7 785 38 785 39 785 c 0
 99 682 160 575 237 486 c 1
 290 413 l 2
 290 412 290 362 290 361 c 1
 289 361 244 361 243 361 c 2
 190 435 l 1
 113 524 52 631 -8 734 c 0
 -8 735 -8 784 -8 785 c 1
EndSplineSet
Validated: 5
EndChar

StartChar: Z
Encoding: 90 90 26
Width: 475
VWidth: 0
Flags: HW
LayerCount: 2
Fore
SplineSet
-28 722 m 1
 -28 723 -28 771 -28 772 c 2
 -15 772 l 1
 24 780 62 782 101 782 c 2
 147 782 l 2
 148 782 185 782 186 782 c 0
 191 782 318 783 368 786 c 0
 369 786 385 787 385 788 c 1
 385 746 430 788 430 788 c 1
 430 738 l 2
 430 600 231 363 85 165 c 1
 136 172 184 166 184 166 c 2
 229 166 l 2
 327 166 403 110 496 86 c 0
 496 85 496 37 496 36 c 1
 495 36 451 36 450 36 c 0
 362 59 326 129 210 115 c 0
 205 114 57 96 21 42 c 1
 17 29 14 18 14 18 c 2
 -32 18 l 1
 -32 18 l 1
 -32 68 l 2
 -32 76 -31 82 -29 89 c 0
 -28 95 -28 101 -28 101 c 0
 16 307 320 478 415 736 c 1
 414 736 413 736 413 736 c 0
 360 733 244 732 226 732 c 2
 180 732 l 2
 179 732 141 732 140 732 c 0
 140 732 139 732 137 732 c 0
 101 732 66 729 30 722 c 1
 17 722 l 2
 16 722 -27 722 -28 722 c 1
102 732 m 1
 101 732 l 1
 102 732 l 1
EndSplineSet
Validated: 37
EndChar

StartChar: bracketleft
Encoding: 91 91 27
Width: 425
VWidth: 0
Flags: HW
LayerCount: 2
Fore
SplineSet
425 792 m 1
 425 791 425 741 425 740 c 0
 359 728 291 722 228 716 c 1
 120 716 l 1
 114 479 102 130 82 -36 c 0
 83 -36 128 -52 129 -52 c 2
 78 -52 l 2
 129 -55 196 -47 202 -40 c 1
 341 -34 l 2
 342 -34 391 -34 392 -34 c 1
 392 -35 392 -84 392 -85 c 2
 253 -91 l 1
 247 -98 180 -106 129 -103 c 2
 78 -103 l 2
 44 -101 17 -94 19 -77 c 2
 19 -26 l 1
 54 236 62 502 69 767 c 1
 177 767 l 1
 240 773 308 780 374 792 c 0
 375 792 424 792 425 792 c 1
EndSplineSet
Validated: 37
EndChar

StartChar: backslash
Encoding: 92 92 28
Width: 407
VWidth: 0
Flags: HW
LayerCount: 2
Fore
SplineSet
-3 800 m 1
 -2 800 47 800 48 800 c 0
 166 573 304 350 394 108 c 1
 417 60 l 2
 417 59 417 10 417 9 c 1
 416 9 366 9 365 9 c 2
 343 56 l 1
 253 298 115 522 -3 749 c 0
 -3 750 -3 799 -3 800 c 1
EndSplineSet
Validated: 1
EndChar

StartChar: bracketright
Encoding: 93 93 29
Width: 419
VWidth: 0
Flags: HW
LayerCount: 2
Fore
SplineSet
-7 746 m 1
 -7 747 -7 797 -7 798 c 2
 3 798 l 1
 54 798 l 2
 81 794 110 793 139 792 c 0
 140 792 157 791 170 791 c 0
 185 791 217 792 218 792 c 2
 269 792 l 2
 377 791 413 711 420 604 c 0
 420 603 421 558 421 557 c 2
 421 506 l 2
 420 393 395 260 389 162 c 1
 389 162 389 137 389 90 c 0
 389 89 389 31 389 30 c 2
 389 -22 l 2
 389 -60 387 -91 384 -91 c 2
 333 -91 l 2
 243 -91 122 -76 32 -69 c 0
 32 -68 32 -18 32 -17 c 1
 33 -17 82 -17 83 -17 c 0
 165 -23 167 -26 335 -39 c 1
 335 -39 338 -10 338 28 c 0
 338 34 338 39 338 39 c 0
 338 79 337 115 337 122 c 2
 337 173 l 2
 337 174 338 212 338 213 c 0
 344 312 359 370 369 528 c 0
 369 540 369 552 369 553 c 0
 363 646 351 712 240 740 c 0
 233 740 227 740 227 740 c 0
 226 740 184 740 183 740 c 2
 132 740 l 2
 131 740 89 741 88 741 c 0
 34 742 44 746 44 746 c 2
 43 746 -6 746 -7 746 c 1
255 740 m 1
 269 740 l 1
 255 740 l 1
338 -12 m 1
 338 -22 l 1
 338 -12 l 1
EndSplineSet
Validated: 41
EndChar

StartChar: asciicircum
Encoding: 94 94 30
Width: 374
VWidth: 0
Flags: HW
LayerCount: 2
Fore
SplineSet
14 677 m 1
 14 678 14 727 14 728 c 0
 57 771 124 792 169 826 c 1
 221 826 l 2
 252 826 309 751 329 734 c 2
 362 714 l 2
 362 713 362 664 362 663 c 1
 361 663 312 663 311 663 c 2
 278 683 l 2
 260 698 244 724 200 761 c 1
 195 758 100 712 65 677 c 0
 64 677 15 677 14 677 c 1
EndSplineSet
Validated: 1
EndChar

StartChar: underscore
Encoding: 95 95 31
Width: 502
VWidth: 0
Flags: HW
LayerCount: 2
Fore
SplineSet
15 -159 m 1
 15 -158 15 -109 15 -108 c 2
 23 -108 l 2
 33 -108 63 -100 80 -97 c 2
 435 -93 l 2
 436 -93 485 -93 486 -93 c 1
 486 -94 486 -143 486 -144 c 2
 132 -148 l 2
 115 -151 84 -159 74 -159 c 2
 66 -159 l 2
 65 -159 16 -159 15 -159 c 1
EndSplineSet
Validated: 1
EndChar

StartChar: grave
Encoding: 96 96 32
Width: 284
VWidth: 0
Flags: HW
LayerCount: 2
Fore
SplineSet
26 771 m 1
 26 772 26 821 26 822 c 2
 77 822 l 2
 78 822 114 801 115 800 c 0
 116 800 142 788 146 787 c 0
 147 787 l 2
 214 738 l 2
 214 737 214 688 214 687 c 1
 213 687 164 687 163 687 c 2
 96 736 l 2
 95 735 65 749 64 749 c 0
 63 750 27 771 26 771 c 1
EndSplineSet
Validated: 33
EndChar

StartChar: exclam
Encoding: 33 33 33
Width: 269
VWidth: 0
Flags: HW
LayerCount: 2
Fore
SplineSet
153 228 m 1
 153 226 153 147 153 146 c 2
 147 130 l 2
 146 129 144 128 145 128 c 2
 145 128 142 128 141 128 c 2
 90 128 l 2
 89 128 67 131 66 131 c 0
 65 131 57 145 57 146 c 2
 57 198 l 2
 57 199 66 220 66 221 c 0
 67 222 87 228 88 228 c 2
 96 228 l 2
 97 228 152 228 153 228 c 1
98 812 m 2
 99 812 148 812 149 812 c 2
 149 798 l 1
 149 746 l 2
 149 641 141 536 139 431 c 0
 139 424 142 390 143 380 c 2
 147 316 l 2
 147 315 147 266 147 265 c 1
 146 265 97 265 96 265 c 2
 92 329 l 2
 91 343 88 365 88 386 c 2
 88 437 l 2
 88 438 88 481 88 482 c 0
 90 587 98 693 98 798 c 2
 98 812 l 2
EndSplineSet
Validated: 1
EndChar

StartChar: quotedbl
Encoding: 34 34 34
Width: 370
VWidth: 0
Flags: HW
LayerCount: 2
Fore
SplineSet
338 806 m 1
 338 805 338 756 338 755 c 0
 282 691 206 649 158 581 c 1
 121 544 l 2
 120 544 71 544 70 544 c 1
 70 545 70 594 70 595 c 2
 106 632 l 1
 154 700 231 742 287 806 c 0
 288 806 337 806 338 806 c 1
188 820 m 1
 188 819 188 770 188 769 c 0
 160 732 106 697 80 663 c 0
 79 663 30 663 29 663 c 1
 29 664 29 713 29 714 c 0
 55 748 109 783 137 820 c 0
 138 820 187 820 188 820 c 1
EndSplineSet
Validated: 1
EndChar

StartChar: numbersign
Encoding: 35 35 35
Width: 659
VWidth: 0
Flags: HW
LayerCount: 2
Fore
SplineSet
-11 381 m 1
 -10 381 32 381 33 381 c 2
 604 377 l 2
 604 376 604 337 604 336 c 1
 603 336 561 336 560 336 c 2
 -11 339 l 2
 -11 340 -11 380 -11 381 c 1
53 507 m 1
 52 507 10 507 9 507 c 2
 7 508 l 1
 7 550 l 2
 7 555 593 556 667 557 c 0
 668 557 710 557 711 557 c 1
 711 556 711 516 711 515 c 0
 635 514 53 515 53 507 c 1
528 698 m 1
 528 697 528 657 528 656 c 0
 473 496 442 326 370 170 c 1
 361 133 l 2
 360 133 318 133 317 133 c 1
 317 134 317 174 317 175 c 2
 326 211 l 1
 398 367 429 538 484 698 c 0
 485 698 527 698 528 698 c 1
320 712 m 1
 320 711 320 672 320 671 c 0
 245 506 181 332 121 163 c 0
 120 163 78 163 77 163 c 1
 77 164 77 204 77 205 c 0
 137 374 201 547 276 712 c 0
 277 712 319 712 320 712 c 1
EndSplineSet
Validated: 5
EndChar

StartChar: dollar
Encoding: 36 36 36
Width: 588
VWidth: 0
Flags: HW
LayerCount: 2
Fore
SplineSet
431 890 m 1
 431 889 431 840 431 839 c 0
 357 502 284 158 218 -177 c 0
 217 -177 168 -177 167 -177 c 1
 167 -176 167 -127 167 -126 c 0
 233 209 306 553 380 890 c 0
 381 890 430 890 431 890 c 1
525 583 m 1
 524 583 475 583 474 583 c 0
 438 665 341 704 253 712 c 0
 253 712 253 712 252 712 c 0
 251 711 232 710 232 710 c 1
 146 682 104 618 88 551 c 0
 88 551 87 544 86 537 c 0
 86 534 86 533 86 533 c 1
 110 456 151 440 212 432 c 0
 213 432 224 431 236 430 c 0
 293 436 298 439 337 439 c 2
 388 439 l 2
 475 439 572 410 572 302 c 2
 572 251 l 2
 572 128 469 52 349 52 c 2
 298 52 l 2
 172 52 157 119 56 167 c 1
 15 218 l 2
 15 219 15 268 15 269 c 1
 16 269 66 269 67 269 c 2
 107 218 l 1
 201 173 221 112 324 104 c 1
 418 111 494 157 521 278 c 1
 506 321 477 374 364 388 c 1
 364 388 290 378 257 378 c 2
 206 378 l 2
 205 378 161 381 160 381 c 0
 87 391 32 428 32 513 c 2
 32 564 l 2
 32 565 36 602 36 603 c 0
 55 681 126 765 210 765 c 2
 261 765 l 2
 262 765 303 764 304 764 c 0
 392 756 489 716 525 634 c 0
 525 633 525 584 525 583 c 1
210 714 m 1
 210 714 l 1
 210 714 l 1
EndSplineSet
Validated: 5
EndChar

StartChar: percent
Encoding: 37 37 37
Width: 563
VWidth: 0
Flags: HW
LayerCount: 2
Fore
SplineSet
454 429 m 1
 454 428 454 379 454 378 c 2
 429 318 l 2
 428 318 379 318 378 318 c 1
 378 319 378 369 378 370 c 2
 403 429 l 2
 404 429 453 429 454 429 c 1
567 771 m 1
 567 770 567 721 567 720 c 0
 381 534 201 316 46 99 c 1
 30 62 l 2
 29 62 -20 62 -21 62 c 1
 -21 63 -21 113 -21 114 c 2
 -5 151 l 1
 150 368 329 585 515 771 c 0
 516 771 566 771 567 771 c 1
149 691 m 1
 149 690 149 641 149 640 c 2
 135 589 l 2
 134 589 84 589 83 589 c 1
 83 590 83 639 83 640 c 2
 98 691 l 2
 99 691 148 691 149 691 c 1
EndSplineSet
Validated: 1
EndChar

StartChar: ampersand
Encoding: 38 38 38
Width: 468
VWidth: 0
Flags: HW
LayerCount: 2
Fore
SplineSet
371 470 m 2
 372 470 421 470 422 470 c 2
 422 464 l 1
 422 413 l 2
 422 360 381 309 328 269 c 1
 355 248 380 225 403 196 c 1
 492 171 l 2
 492 170 492 121 492 120 c 1
 491 120 441 120 440 120 c 2
 352 144 l 1
 326 177 296 204 264 229 c 1
 214 203 163 187 127 187 c 2
 76 187 l 2
 14 187 -4 239 -4 296 c 2
 -4 347 l 2
 -4 391 8 381 52 420 c 1
 29 461 14 509 14 572 c 2
 14 624 l 2
 14 625 20 665 20 666 c 0
 38 736 99 800 172 800 c 2
 223 800 l 2
 224 800 264 793 265 793 c 0
 309 780 356 747 356 701 c 2
 356 650 l 2
 356 649 349 602 349 601 c 0
 322 512 225 459 148 410 c 1
 182 372 223 344 264 315 c 1
 321 353 371 404 371 464 c 2
 371 470 l 2
89 369 m 1
 73 357 65 348 49 315 c 1
 49 315 44 272 101 241 c 1
 117 244 156 256 198 277 c 1
 159 305 120 334 89 369 c 1
68 589 m 0
 68 587 68 586 68 586 c 1
 76 536 90 497 109 464 c 1
 251 553 273 570 298 652 c 0
 298 652 299 659 300 667 c 0
 299 673 298 679 298 679 c 0
 264 726 248 731 213 742 c 0
 213 742 204 743 194 745 c 0
 194 745 l 1
 119 719 86 673 71 615 c 0
 71 614 70 601 68 589 c 0
EndSplineSet
Validated: 37
EndChar

StartChar: quotesingle
Encoding: 39 39 39
Width: 136
VWidth: 0
Flags: HW
LayerCount: 2
Fore
SplineSet
117 808 m 1
 117 807 117 758 117 757 c 2
 68 685 l 2
 67 685 18 685 17 685 c 1
 17 686 17 735 17 736 c 2
 66 808 l 2
 67 808 116 808 117 808 c 1
EndSplineSet
Validated: 1
EndChar

StartChar: parenleft
Encoding: 40 40 40
Width: 306
VWidth: 0
Flags: HW
LayerCount: 2
Fore
SplineSet
253 796 m 1
 253 795 253 745 253 744 c 0
 126 658 66 482 57 326 c 0
 57 325 56 282 56 280 c 2
 56 280 l 2
 56 280 56 271 55 261 c 0
 55 259 55 257 55 257 c 1
 77 107 166 13 285 -38 c 0
 285 -39 285 -88 285 -89 c 1
 284 -89 235 -89 234 -89 c 0
 104 -34 3 91 2 236 c 2
 2 287 l 2
 2 288 5 330 5 331 c 0
 5 332 6 376 6 377 c 0
 15 533 74 710 201 796 c 0
 202 796 252 796 253 796 c 1
EndSplineSet
Validated: 1
EndChar

StartChar: parenright
Encoding: 41 41 41
Width: 277
VWidth: 0
Flags: HW
LayerCount: 2
Fore
SplineSet
17 789 m 1
 18 789 68 789 69 789 c 0
 196 703 255 527 264 371 c 0
 264 370 265 325 265 324 c 0
 265 323 268 282 268 281 c 2
 268 229 l 2
 267 84 166 -40 36 -95 c 0
 35 -95 -14 -95 -15 -95 c 1
 -15 -94 -15 -45 -15 -44 c 0
 104 7 193 101 215 251 c 1
 215 251 215 252 215 254 c 0
 214 264 214 273 214 273 c 2
 214 273 l 2
 214 275 213 318 213 319 c 0
 204 475 144 652 17 738 c 0
 17 739 17 788 17 789 c 1
EndSplineSet
Validated: 1
EndChar

StartChar: asterisk
Encoding: 42 42 42
Width: 472
VWidth: 0
Flags: HW
LayerCount: 2
Fore
SplineSet
386 335 m 1
 342 355 278 267 240 241 c 2
 121 148 l 2
 120 148 71 148 70 148 c 1
 70 149 70 199 70 200 c 2
 189 292 l 2
 227 318 290 406 334 386 c 1
 386 386 l 2
 386 385 386 336 386 335 c 1
68 407 m 1
 69 407 118 407 119 407 c 0
 200 323 301 239 375 146 c 0
 375 145 375 96 375 95 c 1
 374 95 325 95 324 95 c 0
 250 188 149 271 68 355 c 0
 68 356 68 406 68 407 c 1
11 261 m 1
 11 262 11 311 11 312 c 2
 103 312 l 1
 141 312 l 2
 141 312 140 312 139 312 c 0
 129 308 169 261 62 261 c 0
 61 261 12 261 11 261 c 1
154 312 m 2
 217 312 274 303 330 298 c 2
 466 278 l 2
 466 277 466 227 466 226 c 1
 465 226 415 226 414 226 c 2
 279 247 l 2
 234 251 141 312 141 312 c 1
 154 312 l 2
177 486 m 1
 178 486 227 486 228 486 c 2
 230 478 l 1
 248 374 241 268 244 163 c 1
 249 146 242 128 255 114 c 0
 255 113 255 63 255 62 c 1
 254 62 204 62 203 62 c 0
 190 76 198 95 193 112 c 1
 190 217 197 323 179 427 c 1
 177 435 l 2
 177 436 177 485 177 486 c 1
EndSplineSet
Validated: 37
EndChar

StartChar: plus
Encoding: 43 43 43
Width: 398
VWidth: 0
Flags: HW
LayerCount: 2
Fore
SplineSet
154 431 m 1
 155 431 204 431 205 431 c 0
 222 333 228 234 228 135 c 2
 228 83 l 2
 228 82 228 35 228 34 c 0
 227 34 177 34 176 34 c 1
 176 35 176 84 176 85 c 0
 176 85 176 92 176 101 c 0
 175 194 170 288 154 380 c 0
 154 381 154 430 154 431 c 1
177 134 m 1
 177 135 l 1
 177 134 l 1
2 212 m 1
 2 213 2 262 2 263 c 2
 344 263 l 2
 345 263 394 263 395 263 c 1
 395 262 395 213 395 212 c 2
 53 212 l 2
 52 212 3 212 2 212 c 1
EndSplineSet
Validated: 5
EndChar

StartChar: hyphen
Encoding: 45 45 44
Width: 397
VWidth: 0
Flags: HW
LayerCount: 2
Fore
SplineSet
2 212 m 1
 2 213 2 262 2 263 c 2
 344 263 l 2
 345 263 394 263 395 263 c 1
 395 262 395 213 395 212 c 2
 53 212 l 2
 52 212 3 212 2 212 c 1
EndSplineSet
Validated: 1
EndChar

StartChar: comma
Encoding: 44 44 45
Width: 160
VWidth: 0
Flags: HW
LayerCount: 2
Fore
SplineSet
158 93 m 1
 158 92 158 43 158 42 c 0
 153 1 107 -34 78 -60 c 1
 54 -71 l 2
 53 -71 4 -71 3 -71 c 1
 3 -70 3 -20 3 -19 c 2
 27 -9 l 1
 56 17 102 52 107 93 c 0
 108 93 157 93 158 93 c 1
EndSplineSet
Validated: 1
EndChar

StartChar: period
Encoding: 46 46 46
Width: 67
VWidth: 0
Flags: HW
LayerCount: 2
Fore
SplineSet
65 71 m 1
 65 70 65 20 65 19 c 2
 54 -34 l 2
 53 -34 4 -34 3 -34 c 1
 3 -33 3 16 3 17 c 2
 14 71 l 2
 15 71 64 71 65 71 c 1
EndSplineSet
Validated: 1
EndChar

StartChar: slash
Encoding: 47 47 47
Width: 433
VWidth: 0
Flags: HW
LayerCount: 2
Fore
SplineSet
423 779 m 1
 423 778 423 729 423 728 c 0
 261 538 197 276 89 52 c 1
 50 -50 l 2
 49 -50 0 -50 -1 -50 c 1
 -1 -49 -1 0 -1 1 c 2
 38 103 l 1
 146 327 210 589 372 779 c 0
 373 779 422 779 423 779 c 1
EndSplineSet
Validated: 1
EndChar

StartChar: colon
Encoding: 58 58 48
Width: 141
VWidth: 0
Flags: HW
LayerCount: 2
Fore
SplineSet
52 54 m 2
 53 54 103 54 104 54 c 2
 104 48 l 1
 104 -3 l 2
 101 -19 l 2
 99 -50 l 2
 98 -50 49 -50 48 -50 c 1
 48 -49 48 0 48 1 c 2
 50 32 l 2
 52 48 l 2
 52 54 l 2
46 241 m 0
 47 241 96 241 97 241 c 2
 97 232 l 1
 97 181 l 1
 93 142 l 2
 92 142 43 142 42 142 c 1
 42 143 42 193 42 194 c 0
 44 212 43 210 46 241 c 0
EndSplineSet
Validated: 1
EndChar

StartChar: semicolon
Encoding: 59 59 49
Width: 101
VWidth: 0
Flags: HW
LayerCount: 2
Fore
SplineSet
42 54 m 2
 43 54 93 54 94 54 c 2
 94 48 l 1
 94 -3 l 2
 91 -19 l 2
 50 -73 l 2
 49 -73 0 -73 -1 -73 c 1
 -1 -72 38 0 38 1 c 2
 40 32 l 2
 42 48 l 2
 42 54 l 2
36 241 m 0
 37 241 86 241 87 241 c 2
 87 232 l 1
 87 181 l 1
 83 142 l 2
 82 142 33 142 32 142 c 1
 32 143 32 193 32 194 c 0
 34 212 33 210 36 241 c 0
EndSplineSet
Validated: 5
EndChar

StartChar: less
Encoding: 60 60 50
Width: 612
VWidth: 0
Flags: HW
LayerCount: 2
Fore
SplineSet
625 796 m 1
 625 795 625 745 625 744 c 0
 464 605 190 388 87 318 c 1
 243 217 541 25 609 -19 c 1
 625 -40 l 2
 625 -41 625 -90 625 -91 c 1
 624 -91 575 -91 574 -91 c 2
 558 -71 l 1
 479 -20 -14 296 -14 298 c 2
 -14 349 l 1
 191 486 386 634 574 796 c 0
 575 796 624 796 625 796 c 1
EndSplineSet
Validated: 1
EndChar

StartChar: greater
Encoding: 62 62 51
Width: 624
VWidth: 0
Flags: HW
LayerCount: 2
Fore
SplineSet
-10 805 m 1
 -10 804 -10 755 -10 754 c 0
 151 615 425 398 528 328 c 1
 372 227 75 34 7 -10 c 1
 -10 -30 l 2
 -10 -31 -10 -80 -10 -81 c 1
 -9 -81 40 -81 41 -81 c 2
 58 -61 l 1
 137 -10 629 306 629 308 c 2
 629 359 l 1
 424 496 229 643 41 805 c 0
 40 805 -9 805 -10 805 c 1
EndSplineSet
Validated: 9
EndChar

StartChar: equal
Encoding: 61 61 52
Width: 366
VWidth: 0
Flags: HW
LayerCount: 2
Fore
SplineSet
9 153 m 1
 9 154 9 203 9 204 c 2
 331 202 l 2
 332 202 361 204 362 204 c 1
 362 203 362 154 362 153 c 2
 41 151 l 2
 40 151 10 153 9 153 c 1
7 261 m 1
 7 262 7 311 7 312 c 2
 329 310 l 2
 330 310 359 312 360 312 c 1
 360 311 360 262 360 261 c 2
 38 259 l 2
 37 259 8 261 7 261 c 1
EndSplineSet
Validated: 1
EndChar

StartChar: zero
Encoding: 48 48 53
Width: 482
VWidth: 0
Flags: HW
LayerCount: 2
Fore
SplineSet
61 388 m 1
 61 388 l 1
 61 388 l 1
61 343 m 0
 61 341 61 340 61 340 c 0
 63 240 65 133 162 90 c 1
 292 118 417 236 426 439 c 0
 424 466 324 690 231 743 c 1
 223 730 216 718 203 716 c 1
 151 604 62 563 62 413 c 0
 62 412 61 366 61 343 c 0
11 464 m 0
 11 614 100 655 152 767 c 1
 222 779 l 1
 226 779 l 1
 226 783 l 1
 232 783 l 1
 335 762 l 2
 454 762 478 545 478 469 c 2
 478 418 l 2
 478 255 384 38 185 38 c 2
 134 38 l 2
 32 38 12 174 10 289 c 0
 10 290 10 336 10 337 c 2
 10 388 l 2
 10 389 10 429 10 430 c 0
 10 431 11 463 11 464 c 0
EndSplineSet
Validated: 1
EndChar

StartChar: one
Encoding: 49 49 54
Width: 417
VWidth: 0
Flags: HW
LayerCount: 2
Fore
SplineSet
393 66 m 0
 393 65 343 66 342 66 c 0
 341 66 320 66 319 66 c 0
 217 66 -13 52 -13 61 c 2
 -13 112 l 2
 -13 113 25 155 26 156 c 0
 73 171 118 165 118 165 c 1
 188 165 l 1
 209 233 228 287 336 674 c 1
 258 611 196 564 106 574 c 1
 54 574 l 1
 54 575 54 626 54 626 c 0
 182 613 286 734 364 792 c 1
 415 792 l 1
 415 740 l 2
 415 733 411 714 404 686 c 0
 364 525 257 135 257 135 c 1
 361 134 337 119 337 119 c 2
 338 119 397 121 398 121 c 1
 398 120 398 71 398 70 c 0
 398 69 399 66 398 66 c 2
 393 66 l 0
EndSplineSet
Validated: 33
EndChar

StartChar: two
Encoding: 50 50 55
Width: 510
VWidth: 0
Flags: HW
LayerCount: 2
Fore
SplineSet
66 523 m 2
 65 523 16 523 15 523 c 2
 15 527 l 1
 15 579 l 2
 15 700 237 777 330 777 c 2
 382 777 l 2
 462 777 468 708 468 644 c 2
 468 593 l 2
 468 497 379 307 268 175 c 1
 315 153 363 128 415 118 c 0
 431 116 435 114 449 130 c 0
 450 130 499 130 500 130 c 1
 500 129 500 80 500 79 c 0
 491 69 478 61 461 62 c 2
 410 62 l 2
 409 62 365 67 364 67 c 0
 309 78 266 101 220 123 c 1
 163 67 102 30 46 30 c 2
 -6 30 l 2
 -15 30 -14 77 -14 83 c 2
 -14 134 l 2
 -14 194 22 220 74 220 c 2
 126 220 l 2
 148 220 170 215 193 207 c 1
 302 322 394 484 416 625 c 1
 416 625 420 695 356 725 c 1
 309 718 66 654 66 527 c 2
 66 523 l 2
140 156 m 1
 127 160 114 164 100 167 c 1
 100 167 70 189 28 81 c 1
 65 98 103 124 140 156 c 1
EndSplineSet
Validated: 33
EndChar

StartChar: three
Encoding: 51 51 56
Width: 491
VWidth: 0
Flags: HW
LayerCount: 2
Fore
SplineSet
-12 701 m 1
 -12 702 -12 752 -12 753 c 2
 2 753 l 2
 110 753 222 759 327 759 c 0
 328 759 365 760 366 760 c 2
 414 760 l 2
 415 760 444 757 445 757 c 2
 445 706 l 2
 445 673 381 609 294 544 c 1
 302 543 306 542 306 542 c 2
 354 542 l 2
 445 542 508 470 499 388 c 2
 483 236 l 2
 474 149 343 61 224 61 c 2
 176 61 l 2
 132 61 91 98 53 114 c 1
 37 139 l 2
 37 140 37 189 37 190 c 1
 38 190 84 190 85 190 c 2
 100 165 l 1
 139 148 125 147 203 113 c 1
 263 120 440 133 444 305 c 1
 436 346 429 469 336 489 c 1
 336 489 284 484 222 467 c 0
 187 457 160 445 160 431 c 1
 160 451 140 445 126 438 c 1
 127 433 124 431 112 431 c 2
 112 431 l 1
 112 482 l 2
 112 500 119 513 130 523 c 0
 182 583 359 682 375 708 c 1
 270 708 157 701 49 701 c 2
 36 701 l 2
 35 701 -11 701 -12 701 c 1
EndSplineSet
Validated: 37
EndChar

StartChar: four
Encoding: 52 52 57
Width: 470
VWidth: 0
Flags: HW
LayerCount: 2
Fore
SplineSet
245 749 m 1
 245 748 245 698 245 697 c 0
 191 609 96 496 44 414 c 1
 44 414 -29 400 1 400 c 0
 106 400 47 409 167 409 c 2
 292 409 l 2
 311 409 344 484 372 567 c 0
 393 629 411 695 419 737 c 0
 419 738 423 768 423 769 c 2
 474 769 l 1
 474 718 l 2
 474 549 347 200 302 17 c 1
 296 15 l 2
 295 15 246 15 245 15 c 1
 245 16 245 66 245 67 c 2
 251 69 l 1
 277 175 265 123 334 357 c 1
 218 357 l 2
 101 357 122 351 122 351 c 1
 122 351 115 350 114 350 c 0
 113 350 53 349 52 349 c 2
 40 349 l 1
 -11 349 l 1
 -11 400 l 1
 75 494 130 645 194 749 c 0
 195 749 244 749 245 749 c 1
EndSplineSet
Validated: 33
EndChar

StartChar: five
Encoding: 53 53 58
Width: 556
VWidth: 0
Flags: HW
LayerCount: 2
Fore
SplineSet
539 798 m 1
 539 797 539 747 539 746 c 2
 488 746 l 2
 487 746 458 747 457 747 c 0
 457 747 454 747 449 747 c 1
 467 747 429 746 429 746 c 0
 360 741 354 741 331 726 c 1
 279 726 l 2
 244 726 183 723 182 723 c 0
 143 658 125 625 82 516 c 1
 279 589 272 593 351 593 c 2
 402 593 l 2
 485 593 550 563 550 478 c 2
 550 427 l 2
 550 166 402 -7 146 -7 c 2
 95 -7 l 1
 52 7 l 2
 52 8 52 57 52 58 c 1
 53 58 102 58 103 58 c 0
 104 58 140 46 141 46 c 0
 299 60 477 167 498 452 c 1
 488 478 475 524 381 541 c 1
 362 539 153 508 77 447 c 0
 66 438 56 428 50 418 c 0
 44 399 40 384 40 384 c 2
 -11 384 l 1
 -11 384 l 1
 -11 435 l 2
 -11 535 -11 508 -3 475 c 1
 4 499 14 530 26 563 c 0
 62 662 112 781 124 781 c 2
 175 781 l 2
 176 781 212 781 213 781 c 0
 249 780 262 779 262 779 c 1
 327 793 351 797 412 798 c 2
 463 798 l 2
 464 798 507 798 508 798 c 0
 509 798 538 798 539 798 c 1
412 747 m 1
 412 747 l 1
 412 747 l 1
EndSplineSet
Validated: 37
EndChar

StartChar: six
Encoding: 54 54 59
Width: 460
VWidth: 0
Flags: HW
LayerCount: 2
Fore
SplineSet
192 463 m 0
 190 461 167 459 167 459 c 0
 166 458 111 431 110 431 c 2
 88 393 l 2
 87 393 88 417 89 435 c 1
 86 423 53 305 53 304 c 0
 53 304 53 302 53 299 c 1
 54 315 57 262 57 262 c 0
 57 121 146 81 231 68 c 1
 345 113 383 214 397 301 c 0
 397 301 398 304 398 309 c 0
 398 313 398 317 398 317 c 0
 369 422 289 453 193 463 c 0
 193 463 193 463 192 463 c 0
53 259 m 1
 53 258 l 1
 53 259 l 1
105 463 m 1
 202 515 l 2
 203 515 248 513 249 513 c 0
 358 501 456 447 456 337 c 2
 456 286 l 2
 456 285 453 252 453 251 c 0
 438 158 369 11 262 11 c 2
 206 11 l 2
 64 11 1 87 1 212 c 0
 1 213 -3 257 -3 258 c 2
 -3 309 l 2
 -3 310 -2 354 -2 355 c 0
 1 401 10 445 25 488 c 0
 71 617 212 761 379 809 c 0
 380 809 434 809 435 809 c 1
 435 808 435 760 435 759 c 0
 286 687 203 635 105 463 c 1
EndSplineSet
Validated: 33
EndChar

StartChar: seven
Encoding: 55 55 60
Width: 498
VWidth: 0
Flags: HW
LayerCount: 2
Fore
SplineSet
174 582 m 1
 173 582 124 582 123 582 c 0
 96 614 17 648 -20 688 c 1
 -20 739 l 1
 129 739 l 2
 167 739 364 733 439 751 c 0
 440 751 448 755 450 756 c 0
 450 757 l 2
 510 753 l 1
 510 701 l 1
 510 692 l 2
 507 692 504 691 502 691 c 2
 490 675 l 2
 410 565 148 95 108 41 c 1
 102 25 l 2
 101 25 52 25 51 25 c 1
 51 26 51 75 51 76 c 2
 57 92 l 1
 115 171 222 444 400 688 c 1
 178 688 259 688 180 688 c 2
 98 688 l 1
 98 688 174 670 174 633 c 0
 174 632 174 583 174 582 c 1
EndSplineSet
Validated: 33
EndChar

StartChar: eight
Encoding: 56 56 61
Width: 454
VWidth: 0
Flags: HW
LayerCount: 2
Fore
SplineSet
208 787 m 0
 210 787 330 787 331 787 c 2
 390 775 l 1
 419 748 470 752 470 699 c 2
 470 648 l 2
 470 647 464 606 464 605 c 0
 442 535 377 499 303 467 c 1
 155 600 130 604 130 677 c 2
 130 728 l 2
 130 729 138 762 138 763 c 0
 154 792 190 802 226 802 c 0
 227 802 240 802 241 802 c 0
 242 801 207 788 208 787 c 0
390 312 m 1
 386 332 387 363 308 463 c 0
 306 464 305 466 303 467 c 0
 198 421 76 380 39 251 c 1
 43 225 28 121 133 78 c 1
 237 90 380 153 390 312 c 1
390 312 m 0
 390 319 390 326 390 333 c 2
 390 310 l 2
 390 311 390 311 390 312 c 0
263 768 m 0
 263 769 208 745 190 712 c 0
 190 712 188 705 186 698 c 1
 212 636 258 605 311 557 c 0
 313 555 315 554 317 552 c 0
 362 579 399 611 413 656 c 0
 413 656 413 660 414 664 c 0
 413 669 412 675 412 675 c 0
 375 710 364 701 339 724 c 1
 280 736 l 2
 280 737 263 767 263 768 c 0
414 664 m 0
 416 676 419 698 419 699 c 1
 419 649 416 655 414 664 c 0
317 552 m 1
 380 494 441 428 441 333 c 2
 441 282 l 2
 441 117 315 26 158 26 c 2
 107 26 l 2
 6 26 -34 137 -34 215 c 2
 -13 275 l 2
 39 427 189 475 317 552 c 1
186 698 m 0
 184 688 181 678 181 677 c 1
 181 753 185 702 185 702 c 2
 185 701 186 699 186 698 c 0
EndSplineSet
Validated: 37
EndChar

StartChar: nine
Encoding: 57 57 62
Width: 440
VWidth: 0
Flags: HW
LayerCount: 2
Fore
SplineSet
279 788 m 2
 278 788 268 761 267 761 c 0
 248 776 228 771 228 771 c 1
 141 746 115 684 106 613 c 0
 106 613 106 606 106 600 c 0
 106 597 106 595 106 595 c 1
 121 509 164 477 233 466 c 0
 233 466 240 466 248 465 c 0
 250 465 252 465 252 465 c 1
 348 484 379 547 388 624 c 0
 388 624 l 0
 387 626 385 641 385 641 c 1
 359 697 312 756 285 779 c 1
 285 779 259 815 276 815 c 2
 317 815 l 2
 415 815 447 674 447 605 c 2
 447 565 l 2
 447 349 405 162 302 90 c 1
 233 42 15 -29 -21 64 c 0
 -21 65 -11 114 -11 115 c 1
 -10 115 38 106 39 105 c 0
 85 32 240 145 298 182 c 1
 396 317 376 383 397 488 c 1
 371 459 333 423 268 423 c 2
 228 423 l 2
 227 423 193 426 192 426 c 0
 113 438 64 493 64 580 c 2
 64 620 l 2
 64 621 66 652 66 653 c 0
 76 731 122 815 210 815 c 1
 279 788 l 2
EndSplineSet
Validated: 33
EndChar

StartChar: question
Encoding: 63 63 63
Width: 473
VWidth: 0
Flags: HW
LayerCount: 2
Fore
SplineSet
132 104 m 1
 133 104 182 104 183 104 c 0
 203 79 211 43 232 20 c 0
 232 19 232 -30 232 -31 c 1
 231 -31 182 -31 181 -31 c 0
 160 -8 152 28 132 53 c 0
 132 54 132 103 132 104 c 1
257 552 m 2
 258 552 307 552 308 552 c 2
 308 548 l 1
 308 497 l 2
 308 457 222 452 201 452 c 2
 150 452 l 2
 47 452 -1 531 -1 622 c 2
 -1 673 l 2
 -1 766 124 800 195 800 c 2
 246 800 l 2
 376 800 487 756 487 598 c 2
 487 547 l 2
 487 463 325 323 261 257 c 1
 232 141 l 2
 231 141 182 141 181 141 c 1
 181 142 175 239 175 240 c 2
 210 308 l 1
 271 371 389 420 434 580 c 1
 424 689 380 736 224 748 c 1
 202 745 98 738 51 645 c 1
 57 614 66 535 173 504 c 1
 173 504 257 507 257 548 c 2
 257 552 l 2
EndSplineSet
Validated: 1
EndChar

StartChar: at
Encoding: 64 64 64
Width: 600
VWidth: 0
Flags: HW
LayerCount: 2
Fore
SplineSet
428 439 m 1
 373 439 l 2
 372 439 350 477 349 478 c 0
 310 463 246 428 217 336 c 1
 220 324 234 256 306 232 c 1
 306 232 364 254 371 251 c 0
 372 251 401 251 402 251 c 1
 401 305 401 332 401 341 c 2
 428 439 l 1
526 289 m 1
 508 329 l 2
 508 330 508 379 508 380 c 1
 509 380 558 380 559 380 c 2
 578 339 l 1
 578 294 l 1
 578 243 l 2
 578 242 573 201 573 200 c 0
 554 113 480 28 391 28 c 2
 340 28 l 2
 339 28 297 30 296 30 c 0
 148 44 8 128 8 296 c 2
 8 347 l 2
 8 348 10 384 10 385 c 0
 19 516 74 697 230 697 c 2
 281 697 l 2
 282 697 322 695 323 695 c 0
 393 687 463 655 463 572 c 2
 463 521 l 2
 463 520 460 500 457 480 c 2
 457 435 l 2
 455 411 454 388 453 363 c 0
 453 341 454 319 455 298 c 2
 455 298 l 2
 455 297 456 257 456 256 c 2
 456 204 l 2
 456 203 451 193 451 192 c 2
 399 192 l 2
 376 190 359 177 342 177 c 2
 291 177 l 2
 207 177 164 238 164 314 c 2
 164 366 l 2
 164 431 238 527 312 527 c 0
 319 527 331 529 338 529 c 2
 389 529 l 2
 447 529 316 639 271 644 c 0
 271 644 267 644 263 644 c 0
 257 644 250 644 250 644 c 0
 103 607 69 453 61 333 c 0
 61 333 l 0
 61 326 62 315 62 315 c 1
 91 151 212 94 347 81 c 0
 347 81 349 81 352 81 c 0
 357 82 370 82 370 82 c 1
 461 111 505 176 522 251 c 0
 522 252 525 278 526 289 c 1
455 298 m 2
 455 297 455 273 455 272 c 2
 455 298 l 1
 455 298 l 2
452 386 m 2
 452 392 l 2
 452 390 452 388 452 386 c 2
EndSplineSet
Validated: 37
EndChar

StartChar: a
Encoding: 97 97 65
Width: 386
VWidth: 0
Flags: HW
LayerCount: 2
Fore
SplineSet
310 185 m 0
 311 179 311 170 311 170 c 1
 334 102 347 118 369 73 c 1
 395 67 l 2
 395 66 395 23 395 22 c 1
 394 22 351 22 350 22 c 2
 324 27 l 1
 316 44 293 73 271 101 c 1
 238 38 210 3 162 3 c 2
 117 3 l 2
 116 3 82 9 81 9 c 0
 26 28 0 91 0 153 c 2
 0 198 l 2
 0 199 2 233 2 234 c 0
 10 308 43 390 128 390 c 2
 173 390 l 2
 174 390 206 389 207 389 c 0
 220 387 252 368 285 345 c 1
 287 358 288 369 289 378 c 0
 289 385 286 443 286 443 c 2
 331 443 l 1
 331 443 l 1
 335 348 l 2
 336 337 335 325 333 313 c 0
 332 311 l 0
 340 305 347 300 354 295 c 1
 333 295 l 2
 333 293 330 284 318 234 c 0
 315 221 313 207 311 194 c 0
 311 194 310 190 310 185 c 0
139 53 m 0
 140 53 141 53 141 53 c 1
 198 81 223 131 247 195 c 0
 259 226 268 259 275 289 c 0
 275 291 276 293 276 295 c 2
 245 295 l 1
 222 320 195 339 162 344 c 0
 161 344 129 344 128 344 c 1
 198 344 146 341 146 341 c 1
 69 313 54 253 47 189 c 0
 47 189 46 184 46 178 c 0
 46 175 47 172 47 172 c 0
 58 105 81 71 126 55 c 0
 126 55 132 54 139 53 c 0
EndSplineSet
Validated: 37
EndChar

StartChar: b
Encoding: 98 98 66
Width: 349
VWidth: 0
Flags: HW
LayerCount: 2
Fore
SplineSet
136 386 m 1
 158 401 176 407 203 407 c 2
 255 407 l 2
 328 407 345 296 345 243 c 2
 345 191 l 2
 345 66 287 2 185 -12 c 0
 184 -12 139 -15 138 -15 c 2
 87 -15 l 2
 53 -15 28 8 -6 22 c 1
 -7 22 l 1
 -7 73 l 2
 -7 74 -5 117 -5 118 c 0
 14 318 149 554 187 749 c 0
 192 774 209 797 208 820 c 1
 209 820 258 820 259 820 c 2
 259 769 l 2
 260 746 243 722 238 697 c 0
 217 592 180 503 136 386 c 1
114 38 m 1
 124 39 133 39 133 39 c 0
 222 51 274 85 293 213 c 0
 292 221 291 307 228 353 c 1
 195 342 116 281 79 186 c 0
 67 157 31 140 9 87 c 1
 54 87 l 1
 70 62 l 2
 71 62 104 44 114 38 c 1
EndSplineSet
Validated: 33
EndChar

StartChar: c
Encoding: 99 99 67
Width: 357
VWidth: 0
Flags: HW
LayerCount: 2
Fore
SplineSet
362 263 m 1
 361 263 315 263 314 263 c 0
 281 299 230 329 177 337 c 0
 177 337 175 338 174 338 c 0
 170 337 159 336 159 336 c 0
 92 309 38 227 48 176 c 0
 49 172 49 161 49 161 c 0
 69 99 104 64 157 54 c 0
 157 54 160 54 165 54 c 1
 145 55 178 58 178 58 c 0
 228 71 242 80 250 104 c 2
 256 117 l 2
 257 117 303 117 304 117 c 1
 304 116 304 76 304 75 c 2
 298 62 l 2
 287 28 235 17 198 12 c 1
 150 12 l 2
 149 12 110 13 109 13 c 0
 44 25 1 88 -2 143 c 2
 -2 185 l 2
 -2 186 26 235 26 236 c 0
 32 297 58 381 137 381 c 2
 185 381 l 2
 186 381 224 379 225 379 c 0
 278 371 329 340 362 304 c 0
 362 303 362 264 362 263 c 1
195 54 m 1
 197 54 198 54 198 54 c 1
 197 54 196 54 195 54 c 1
137 339 m 1
 137 339 l 1
 137 339 l 1
EndSplineSet
Validated: 33
EndChar

StartChar: d
Encoding: 100 100 68
Width: 417
VWidth: 0
Flags: HW
LayerCount: 2
Fore
SplineSet
310 272 m 1
 387 471 431 587 451 797 c 1
 451 797 454 800 455 801 c 0
 456 801 500 801 501 801 c 1
 501 800 468 798 456 797 c 1
 469 798 503 798 503 799 c 2
 503 759 l 2
 503 620 387 333 344 194 c 0
 337 172 331 150 326 129 c 0
 326 128 327 126 327 125 c 0
 324 107 320 89 318 71 c 0
 317 61 317 50 317 50 c 1
 317 70 304 53 292 54 c 1
 296 48 310 51 299 39 c 1
 268 26 246 2 208 2 c 2
 162 2 l 2
 161 2 123 5 122 5 c 0
 56 14 -4 45 -4 111 c 2
 -4 151 l 2
 -4 152 -3 177 -3 178 c 0
 3 257 34 373 144 373 c 2
 190 373 l 2
 191 373 230 368 231 368 c 0
 298 350 300 368 310 272 c 1
274 98 m 1
 273 106 273 114 273 124 c 0
 273 124 277 147 281 170 c 0
 281 175 282 182 283 189 c 0
 273 266 248 311 185 328 c 0
 185 328 174 329 164 330 c 0
 163 330 163 330 163 330 c 1
 66 302 49 213 44 143 c 0
 45 141 46 126 46 126 c 1
 71 65 113 52 168 45 c 0
 168 45 171 44 174 44 c 0
 179 45 187 45 187 45 c 1
 227 61 225 68 252 79 c 1
 269 98 l 1
 274 98 l 1
EndSplineSet
Validated: 1
EndChar

StartChar: e
Encoding: 101 101 69
Width: 331
VWidth: 0
Flags: HW
LayerCount: 2
Fore
SplineSet
66 202 m 1
 66 203 97 233 97 233 c 2
 111 232 l 2
 174 224 229 228 251 277 c 0
 251 277 252 283 254 290 c 0
 254 293 255 295 255 295 c 0
 255 296 236 337 235 338 c 0
 235 338 222 344 212 348 c 1
 119 332 72 268 50 195 c 0
 50 195 48 187 46 179 c 0
 46 178 46 177 46 177 c 1
 50 109 70 73 116 52 c 0
 116 52 121 51 127 49 c 0
 131 49 133 49 133 49 c 0
 193 75 208 123 258 132 c 0
 259 132 296 129 297 129 c 2
 343 123 l 2
 343 122 337 79 337 78 c 1
 336 78 299 81 298 81 c 0
 240 70 213 -9 149 -3 c 2
 103 3 l 2
 102 3 66 14 65 14 c 0
 9 40 -12 103 -4 165 c 2
 2 209 l 2
 2 210 10 245 10 246 c 0
 36 331 110 411 204 399 c 2
 250 393 l 2
 251 393 286 377 287 377 c 0
 305 360 310 333 306 306 c 2
 301 262 l 2
 301 261 291 228 291 227 c 0
 269 178 215 173 152 181 c 2
 137 183 l 2
 136 183 67 202 66 202 c 1
EndSplineSet
Validated: 33
EndChar

StartChar: f
Encoding: 102 102 70
Width: 328
VWidth: 0
Flags: HW
LayerCount: 2
Fore
SplineSet
398 540 m 2
 397 540 348 540 347 540 c 2
 347 546 l 1
 347 597 l 2
 347 598 351 635 351 636 c 0
 351 636 352 645 353 654 c 0
 353 655 353 655 353 655 c 0
 338 715 320 728 282 739 c 1
 197 750 174 601 163 433 c 1
 214 433 171 435 198 435 c 0
 259 435 282 396 325 376 c 1
 331 364 l 2
 331 363 331 313 331 312 c 1
 330 312 281 312 280 312 c 2
 273 325 l 1
 221 349 273 337 160 390 c 1
 150 196 150 -5 89 -5 c 2
 38 -5 l 2
 -7 -5 -5 206 -5 234 c 2
 -5 286 l 2
 -5 387 40 413 100 427 c 1
 117 611 152 796 243 796 c 2
 294 796 l 2
 295 796 333 791 334 791 c 0
 381 778 407 737 407 677 c 2
 407 626 l 2
 407 625 403 586 403 585 c 0
 403 584 398 547 398 546 c 2
 398 540 l 2
94 360 m 1
 69 344 58 322 46 261 c 1
 46 261 43 116 69 65 c 1
 82 90 83 218 94 360 c 1
EndSplineSet
Validated: 33
EndChar

StartChar: g
Encoding: 103 103 71
Width: 329
VWidth: 0
Flags: HW
LayerCount: 2
Fore
SplineSet
75 85 m 2
 77 85 86 84 95 83 c 0
 96 82 98 82 99 81 c 2
 75 85 l 2
75 85 m 2
 74 85 l 2
 75 85 l 2
95 83 m 1
 107 82 118 82 119 82 c 0
 152 85 189 76 201 89 c 0
 202 89 249 104 249 104 c 2
 245 79 l 2
 250 93 255 108 260 124 c 2
 258 112 l 2
 258 112 296 271 217 337 c 1
 163 329 74 320 57 184 c 0
 56 175 35 119 95 83 c 1
67 37 m 2
 -17 67 -6 102 5 172 c 2
 12 220 l 2
 27 316 87 407 203 389 c 2
 252 382 l 2
 348 368 324 210 315 153 c 2
 308 105 l 2
 274 -119 257 -162 153 -181 c 1
 121 -187 85 -195 30 -189 c 1
 -21 -182 l 1
 -65 -160 l 2
 -65 -159 -57 -111 -57 -110 c 1
 -56 -110 -8 -118 -7 -118 c 0
 -6 -118 89 -124 90 -124 c 0
 250 -95 212 -68 237 31 c 1
 221 21 187 16 161 18 c 0
 160 18 113 21 112 21 c 2
 67 37 l 2
EndSplineSet
Validated: 37
EndChar

StartChar: h
Encoding: 104 104 72
Width: 321
VWidth: 0
Flags: HW
LayerCount: 2
Fore
SplineSet
22 45 m 1
 48 45 l 2
 48 44 48 20 48 19 c 2
 -3 19 l 1
 22 45 l 1
155 797 m 2
 156 797 205 797 206 797 c 2
 206 791 l 1
 206 739 l 2
 206 625 164 508 122 375 c 1
 224 443 161 421 216 421 c 2
 267 421 l 1
 294 409 306 388 311 364 c 0
 311 363 312 326 312 325 c 2
 312 274 l 2
 309 234 296 190 291 157 c 0
 287 126 278 95 273 64 c 0
 273 63 272 60 275 52 c 1
 289 44 l 2
 289 43 289 -6 289 -7 c 1
 288 -7 239 -7 238 -7 c 2
 224 1 l 1
 222 7 218 9 218 17 c 2
 218 69 l 2
 218 70 222 114 222 115 c 0
 227 146 236 177 240 208 c 0
 245 247 244 220 260 306 c 0
 260 310 260 312 260 312 c 0
 260 313 232 364 231 365 c 0
 207 357 120 293 83 195 c 0
 60 134 48 68 48 19 c 1
 48 50 -3 19 -3 19 c 2
 -3 71 l 2
 -3 72 -2 115 -2 116 c 0
 2 162 10 209 21 256 c 0
 66 444 155 612 155 791 c 2
 155 797 l 2
261 274 m 1
 261 274 l 1
 261 274 l 1
EndSplineSet
Validated: 37
EndChar

StartChar: i
Encoding: 105 105 73
Width: 162
VWidth: 0
Flags: HW
LayerCount: 2
Fore
SplineSet
142 550 m 0
 143 550 192 550 193 550 c 2
 195 544 l 1
 195 493 l 1
 190 478 184 458 179 447 c 0
 178 447 129 447 128 447 c 1
 128 448 128 498 128 499 c 0
 135 514 133 523 142 550 c 0
117 411 m 2
 118 411 168 411 169 411 c 2
 169 407 l 1
 169 355 l 2
 169 317 111 223 93 183 c 1
 38 13 l 2
 37 13 -13 13 -14 13 c 1
 -14 14 -14 64 -14 65 c 2
 42 234 l 1
 60 274 117 369 117 407 c 2
 117 411 l 2
EndSplineSet
Validated: 1
EndChar

StartChar: j
Encoding: 106 106 74
Width: 327
VWidth: 0
Flags: HW
LayerCount: 2
Fore
SplineSet
274 525 m 2
 275 525 324 525 325 525 c 2
 325 480 l 1
 325 429 l 2
 325 285 281 -108 89 -108 c 2
 38 -108 l 1
 -15 -81 -28 -12 -35 40 c 0
 -35 41 -35 90 -35 91 c 1
 -34 91 15 91 16 91 c 0
 22 41 10 28 74 -51 c 1
 194 -14 274 303 274 480 c 2
 274 525 l 2
EndSplineSet
Validated: 1
EndChar

StartChar: k
Encoding: 107 107 75
Width: 326
VWidth: 0
Flags: HW
LayerCount: 2
Fore
SplineSet
332 417 m 1
 332 416 332 367 332 366 c 0
 270 304 127 267 87 252 c 1
 147 227 286 142 330 58 c 0
 330 57 330 8 330 7 c 1
 329 7 280 7 279 7 c 0
 219 121 81 167 -29 214 c 1
 -29 265 l 1
 63 324 201 336 281 417 c 0
 282 417 331 417 332 417 c 1
274 818 m 1
 274 817 274 768 274 767 c 0
 199 555 153 327 115 103 c 1
 92 7 l 2
 91 7 42 7 41 7 c 1
 41 8 41 57 41 58 c 2
 63 155 l 1
 101 379 148 606 223 818 c 0
 224 818 273 818 274 818 c 1
EndSplineSet
Validated: 5
EndChar

StartChar: l
Encoding: 108 108 76
Width: 193
VWidth: 0
Flags: HW
LayerCount: 2
Fore
SplineSet
-19 624 m 1
 -19 625 -19 674 -19 675 c 0
 25 684 124 713 182 731 c 1
 193 759 203 787 214 814 c 0
 215 814 271 815 272 815 c 0
 273 815 274 813 274 812 c 2
 274 761 l 1
 266 718 237 689 200 670 c 1
 121 442 78 193 61 3 c 0
 60 3 10 3 9 3 c 1
 9 4 9 53 9 54 c 0
 26 236 83 455 152 651 c 1
 111 638 67 631 32 624 c 0
 31 624 -18 624 -19 624 c 1
EndSplineSet
Validated: 1
EndChar

StartChar: m
Encoding: 109 109 77
Width: 449
VWidth: 0
Flags: HW
LayerCount: 2
Fore
SplineSet
56 -6 m 0
 56 -6 3 2 -7 2 c 1
 -7 53 l 2
 -7 54 -7 76 -7 78 c 2
 -7 78 l 2
 -7 89 -5 113 -5 119 c 0
 -5 187 8 385 102 380 c 2
 172 376 l 2
 232 373 230 340 232 287 c 1
 327 393 312 393 384 393 c 2
 436 393 l 2
 461 393 458 337 458 322 c 2
 458 270 l 1
 451 161 370 81 319 -10 c 1
 268 -10 l 1
 268 41 l 1
 327 148 358 117 416 342 c 1
 359 326 225 240 225 117 c 1
 162 106 l 2
 162 106 196 303 146 309 c 1
 43 294 48 148 48 55 c 2
 48 81 l 2
 48 81 56 -8 56 -6 c 0
EndSplineSet
Validated: 37
EndChar

StartChar: n
Encoding: 110 110 78
Width: 319
VWidth: 0
Flags: HW
LayerCount: 2
Fore
SplineSet
-18 2 m 1
 -18 3 -18 41 -18 42 c 2
 -16 49 l 1
 18 173 45 301 51 429 c 1
 89 429 l 1
 89 436 91 413 91 410 c 0
 91 382 105 353 105 325 c 1
 105 325 113 384 144 384 c 2
 183 384 l 2
 275 384 307 336 307 250 c 2
 307 210 l 2
 307 167 282 127 270 84 c 1
 276 77 286 23 286 23 c 1
 286 24 286 62 286 63 c 0
 287 63 287 65 287 64 c 2
 326 64 l 2
 326 63 326 62 326 61 c 2
 326 21 l 2
 326 20 316 10 315 9 c 0
 314 9 299 2 298 2 c 2
 259 2 l 2
 258 2 233 14 232 14 c 0
 232 15 225 43 225 44 c 2
 225 84 l 2
 225 85 229 117 229 118 c 0
 240 162 250 163 268 232 c 1
 263 267 257 327 167 343 c 1
 167 343 114 264 110 264 c 2
 78 264 l 1
 67 195 44 91 22 9 c 2
 21 2 l 2
 20 2 -17 2 -18 2 c 1
EndSplineSet
Validated: 1
EndChar

StartChar: o
Encoding: 111 111 79
Width: 301
VWidth: 0
Flags: HW
LayerCount: 2
Fore
SplineSet
275 320 m 1
 283 317 l 1
 307 266 309 186 288 125 c 1
 273 91 l 2
 273 90 260 64 260 63 c 0
 231 11 189 -17 129 8 c 2
 97 21 l 2
 96 21 71 35 70 35 c 0
 2 74 -30 138 9 228 c 2
 24 263 l 2
 24 264 36 286 36 287 c 0
 69 346 134 417 193 392 c 2
 224 379 l 2
 225 379 246 365 247 365 c 0
 258 353 263 336 277 324 c 1
 275 320 l 1
244 114 m 0
 245 118 248 126 248 126 c 0
 263 200 257 251 236 296 c 1
 238 300 l 1
 231 303 l 1
 217 315 211 332 200 344 c 0
 200 344 197 347 193 349 c 0
 192 349 192 349 192 349 c 0
 127 349 81 291 52 239 c 0
 52 239 51 236 49 233 c 0
 48 230 47 227 47 227 c 1
 23 134 55 91 116 56 c 0
 116 56 119 54 123 52 c 0
 127 51 131 49 131 49 c 1
 192 40 218 67 243 111 c 0
 243 111 243 112 244 114 c 0
178 358 m 2
 178 358 l 2
 178 358 l 2
EndSplineSet
Validated: 33
EndChar

StartChar: p
Encoding: 112 112 80
Width: 382
VWidth: 0
Flags: HW
LayerCount: 2
Fore
SplineSet
34 -189 m 0
 33 -189 -8 -189 -9 -189 c 2
 -11 -183 l 1
 -11 -137 l 1
 35 17 77 255 125 367 c 0
 125 367 187 376 251 376 c 2
 294 376 l 2
 370 376 388 273 388 212 c 2
 388 166 l 2
 388 61 330 -19 231 -19 c 2
 188 -19 l 2
 143 -19 137 12 107 31 c 1
 92 64 119 37 101 88 c 1
 80 -5 59 -106 34 -189 c 0
258 331 m 2
 266 331 l 1
 266 331 266 331 258 331 c 2
256 331 m 0
 245 330 220 328 167 322 c 1
 146 273 128 203 110 126 c 1
 128 126 l 1
 150 77 l 1
 178 59 163 56 210 28 c 1
 259 39 327 69 345 188 c 1
 343 209 331 327 256 331 c 0
EndSplineSet
Validated: 33
EndChar

StartChar: q
Encoding: 113 113 81
Width: 373
VWidth: 0
Flags: HW
LayerCount: 2
Fore
SplineSet
306 358 m 0
 307 358 318 352 319 352 c 2
 313 337 l 1
 320 340 325 342 325 342 c 1
 326 342 351 325 352 324 c 0
 389 281 390 187 376 151 c 2
 359 109 l 2
 359 108 341 75 341 74 c 0
 310 28 295 8 182 -3 c 1
 195 -63 l 2
 195 -64 178 -105 178 -106 c 1
 177 -106 134 -90 133 -90 c 2
 110 17 l 1
 84 26 l 2
 4 54 -30 130 0 208 c 2
 16 251 l 2
 16 252 32 283 32 284 c 0
 74 360 151 413 246 380 c 2
 291 364 l 2
 292 364 300 361 304 359 c 0
 305 359 306 358 306 358 c 0
294 108 m 1
 295 108 296 108 297 110 c 1
 296 109 295 109 294 108 c 1
178 37 m 1
 277 96 l 1
 277 96 325 188 306 243 c 0
 306 243 266 317 273 320 c 1
 257 325 l 2
 256 325 245 331 244 331 c 2
 244 331 100 298 60 226 c 0
 60 226 59 222 57 218 c 0
 55 213 54 208 54 208 c 0
 51 133 116 6 149 120 c 1
 161 113 171 117 184 114 c 1
 199 111 165 37 178 37 c 1
EndSplineSet
Validated: 33
EndChar

StartChar: r
Encoding: 114 114 82
Width: 366
VWidth: 0
Flags: HW
LayerCount: 2
Fore
SplineSet
127 334 m 0
 113 285 107 256 107 255 c 0
 76 165 60 82 37 -13 c 0
 36 -13 -13 -13 -14 -13 c 2
 -14 -9 l 1
 -14 42 l 1
 7 128 26 218 56 306 c 0
 68 341 89 399 99 440 c 0
 99 441 105 473 105 474 c 1
 105 412 137 464 137 434 c 1
 137 434 137 433 139 433 c 1
 133 457 124 474 105 474 c 2
 156 474 l 1
 156 429 l 1
 173 424 196 417 197 417 c 0
 198 417 245 419 246 419 c 2
 297 419 l 1
 357 410 395 356 408 302 c 0
 408 301 408 252 408 251 c 1
 407 251 358 251 357 251 c 0
 346 298 347 317 264 366 c 1
 150 395 127 334 127 334 c 0
296 367 m 2
 297 367 l 2
 297 367 297 367 296 367 c 2
EndSplineSet
Validated: 37
EndChar

StartChar: s
Encoding: 115 115 83
Width: 332
VWidth: 0
Flags: HW
LayerCount: 2
Fore
SplineSet
282 300 m 1
 282 328 206 357 181 362 c 0
 153 363 135 337 126 323 c 1
 144 239 311 230 311 134 c 0
 311 133 313 119 313 118 c 0
 313 117 315 104 315 103 c 0
 315 102 317 84 317 83 c 2
 317 32 l 2
 317 31 315 12 315 11 c 0
 315 -70 174 -61 143 -61 c 0
 56 -61 110 -60 82 -60 c 0
 23 -60 -16 -18 -51 22 c 0
 -51 23 -51 72 -51 73 c 1
 -50 73 -1 73 0 73 c 0
 35 33 74 -9 133 -9 c 2
 149 -9 l 2
 159 -8 257 -4 264 55 c 0
 263 59 262 66 262 67 c 0
 262 68 260 82 260 83 c 0
 260 181 94 183 74 275 c 0
 74 276 73 307 73 308 c 2
 73 359 l 1
 79 392 102 421 137 415 c 1
 188 415 l 2
 189 415 231 413 232 413 c 0
 274 405 310 379 336 355 c 1
 336 304 l 1
 334 300 l 2
 333 300 283 300 282 300 c 1
EndSplineSet
Validated: 33
EndChar

StartChar: t
Encoding: 116 116 84
Width: 275
VWidth: 0
Flags: HW
LayerCount: 2
Fore
SplineSet
-33 364 m 1
 -33 365 -33 414 -33 415 c 2
 251 415 l 2
 252 415 301 415 302 415 c 1
 302 414 275 349 275 348 c 2
 18 364 l 2
 17.002597605 364.062095091 -32 364 -33 364 c 1
175 820 m 1
 176 820 226 820 227 820 c 2
 227 814 l 1
 232 734 l 1
 195 535 120 286.492320618 120 140 c 0
 120 139 142 56 142 55 c 0
 143 54 154 36 154 37 c 2
 168 33 l 2
 168 32 168 -17 168 -18 c 1
 167 -18 118 -18 117 -18 c 2
 103 -14 l 2
 103 -15 92 3 91 4 c 0
 79 30 64 74 64 83 c 2
 63 159 l 1
 73 355 153 649 175 769 c 0
 175 770 175 819 175 820 c 1
EndSplineSet
Validated: 524325
EndChar

StartChar: u
Encoding: 117 117 85
Width: 335
VWidth: 0
Flags: HW
LayerCount: 2
Fore
SplineSet
5 316 m 2
 5 317 5 367 5 368 c 0
 28 376 58 399 71 407 c 1
 122 407 l 1
 122 355 l 2
 122 282 73 209 56 134 c 0
 53 109 50 121 61 89 c 0
 61 88 87 58 88 58 c 0
 88 58 94 56 101 55 c 0
 105 56 109 56 109 56 c 1
 226 106 272 227 285 333 c 0
 285 334 288 375 288 376 c 0
 288 382 292 390 292 392 c 2
 343 392 l 1
 350 357 l 2
 350 356 350 307 350 306 c 1
 349 306 338 281 337 281 c 0
 322 162 249 15 130 -1 c 1
 79 -1 l 2
 78 -1 37 6 36 6 c 0
 35 6 10 37 10 38 c 0
 4 54 -3 71 -1 89 c 2
 -1 140 l 2
 -1 141 5 184 5 185 c 0
 10 209 5 316 5 316 c 2
130 50 m 1
 130 50 l 1
 130 50 l 1
EndSplineSet
Validated: 33
EndChar

StartChar: v
Encoding: 118 118 86
Width: 424
VWidth: 0
Flags: HW
LayerCount: 2
Fore
SplineSet
-6 423 m 1
 -5 423 44 423 45 423 c 0
 80 310 157 114 178 67 c 1
 246 152 320 318 351 368 c 1
 375 417 l 2
 376 417 425 417 426 417 c 1
 426 416 426 367 426 366 c 2
 402 316 l 1
 365 257 255 -24 189 -24 c 2
 138 -24 l 1
 76 102 35 239 -6 372 c 0
 -6 373 -6 422 -6 423 c 1
EndSplineSet
Validated: 1
EndChar

StartChar: w
Encoding: 119 119 87
Width: 491
VWidth: 0
Flags: HW
LayerCount: 2
Fore
SplineSet
8 433 m 1
 9 433 58 421 59 421 c 0
 73 341 86 155 86 155 c 1
 124 203 155 282 169 286 c 2
 242 326 l 2
 306 132 l 1
 385 231 340 454 449 428 c 0
 450 428 498 416 499 416 c 1
 499 415 487 372 486 371 c 0
 392 281 409 86 323 -10 c 1
 270 1 l 2
 269 1 206 252 206 253 c 0
 206 254 124 103 124 103 c 2
 124 103 100 49 73 56 c 2
 23 69 l 1
 3 162 11 294 -5 388 c 0
 -5 389 8 432 8 433 c 1
EndSplineSet
Validated: 33
EndChar

StartChar: x
Encoding: 120 120 88
Width: 351
VWidth: 0
Flags: HW
LayerCount: 2
Fore
SplineSet
361 399 m 1
 361 398 361 356 361 355 c 0
 260 221 157 133 54 0 c 1
 33 -23 l 2
 32 -23 -10 -23 -11 -23 c 1
 -11 -22 -11 20 -11 21 c 2
 10 44 l 1
 113 177 216 265 317 399 c 0
 318 399 360 399 361 399 c 1
10 413 m 1
 11 413 53 413 54 413 c 0
 87 238 264 160 330 4 c 0
 330 3 330 -39 330 -40 c 1
 329 -40 286 -41 286 -40 c 0
 192 98 43 194 10 369 c 0
 10 370 10 412 10 413 c 1
EndSplineSet
Validated: 37
EndChar

StartChar: y
Encoding: 121 121 89
Width: 365
VWidth: 0
Flags: HW
LayerCount: 2
Fore
SplineSet
8 411 m 1
 9 411 67 413 67 412 c 0
 70 344 60 189 117 187 c 0
 123 187 201 182 237 204 c 0
 262 219 285 356 293 377 c 0
 293 378 303 402 303 403 c 2
 364 405 l 1
 364 405 l 1
 364 356 l 2
 364 344 341 229 330 203 c 0
 304 141 296 82 249 -34 c 1
 212 -96 146 -134 93 -134 c 2
 51 -134 l 1
 31 -145 9 -124 -3 -109 c 0
 -3 -108 -3 -61 -3 -60 c 1
 -2 -60 38 -60 39 -60 c 0
 40 -61 63 -83 64 -83 c 0
 120 -73 137 -60 202 0 c 1
 243 59 237 78 244 163 c 1
 197 138 209 150 177 143 c 2
 128 132 l 2
 127 132 68 142 67 142 c 0
 10 153 8 301 8 362 c 0
 8 363 8 410 8 411 c 1
EndSplineSet
Validated: 37
EndChar

StartChar: z
Encoding: 122 122 90
Width: 400
VWidth: 0
Flags: HW
LayerCount: 2
Fore
SplineSet
33 350 m 1
 33 351 33 399 33 400 c 2
 93 400 l 2
 161 400 226 406 297 406 c 2
 331 406 l 1
 338 406 l 1
 343 406 l 1
 373 406 l 1
 385 406 l 1
 385 373 l 2
 385 372 385 357 385 356 c 1
 385 358 381 359 375 357 c 0
 375 356 l 2
 373 356 l 1
 357 351 329 337 326 335 c 0
 242 283 71 125 47 97 c 1
 82 72 175 62 221 60 c 0
 222 60 244 59 245 59 c 2
 277 59 l 1
 356 69 l 2
 357 69 397 69 398 69 c 1
 398 68 398 20 398 19 c 2
 318 9 l 1
 245 9 l 1
 204 9 l 2
 203 9 180 10 179 10 c 0
 121 13 -9 26 -9 69 c 2
 -9 119 l 2
 -9 120 -2 135 -2 136 c 0
 52 221 70 224 257 354 c 1
 164 350 197 350 134 350 c 2
 113 350 l 1
 99 350 l 1
 93 350 l 1
 74 350 l 2
 73 350 34 350 33 350 c 1
EndSplineSet
Validated: 1
EndChar

StartChar: braceleft
Encoding: 123 123 91
Width: 282
VWidth: 0
Flags: HW
LayerCount: 2
Fore
SplineSet
224 786 m 5
 224 785 224 736 224 735 c 6
 220 735 l 6
 172 735 174 658 171 638 c 5
 171 638 170 621 169 624 c 5
 170 598 175 573 175 547 c 6
 175 496 l 6
 175 432 104 404 104 404 c 5
 104 404 146 345 146 317 c 6
 146 266 l 6
 146 235 144 205 142 174 c 4
 142 174 142 171 142 168 c 4
 143 163 143 144 143 144 c 5
 165 63 180 70 202 10 c 5
 210 6 l 6
 210 5 210 -44 210 -45 c 5
 209 -45 160 -45 159 -45 c 6
 151 -41 l 5
 127 26 89 46 89 127 c 6
 89 178 l 6
 89 179 91 224 91 225 c 4
 92 248 94 271 95 294 c 5
 86 303 15 362 15 362 c 6
 15 414 l 6
 15 415 31 425 32 426 c 4
 64 449 68 440 123 522 c 5
 123 522 118 549 118 586 c 6
 118 637 l 6
 118 638 118 674 118 675 c 4
 119 722 125 786 169 786 c 6
 173 786 l 6
 174 786 223 786 224 786 c 5
EndSplineSet
Validated: 1
EndChar

StartChar: bar
Encoding: 124 124 92
Width: 284
VWidth: 0
Flags: HW
LayerCount: 2
Fore
SplineSet
162 806 m 2
 163 806 212 806 213 806 c 2
 213 800 l 1
 213 749 l 2
 213 547 142 324 109 124 c 1
 92 58 l 2
 91 58 42 58 41 58 c 1
 41 59 41 109 41 110 c 2
 57 175 l 1
 90 375 162 598 162 800 c 2
 162 806 l 2
EndSplineSet
Validated: 1
EndChar

StartChar: braceright
Encoding: 125 125 93
Width: 283
VWidth: 0
Flags: HW
LayerCount: 2
Fore
SplineSet
206 627 m 0
 206 569 171 516 164 459 c 0
 164 459 163 457 163 456 c 0
 165 452 168 437 168 437 c 1
 210 387 232 383 232 367 c 2
 232 315 l 2
 232 315 186 278 162 233 c 0
 162 232 155 210 151 196 c 1
 163 107 179 68 179 0 c 2
 179 -51 l 2
 179 -79 168 -133 130 -133 c 2
 122 -133 l 1
 101 -141 l 2
 100 -141 51 -141 50 -141 c 1
 50 -140 50 -91 50 -90 c 2
 71 -82 l 1
 79 -82 l 2
 105 -82 115 -69 127 -21 c 1
 125 -6 97 121 97 186 c 2
 97 238 l 2
 97 239 110 283 110 284 c 0
 110 285 154 344 155 345 c 2
 155 345 108 350 108 416 c 2
 108 467 l 2
 108 468 112 509 112 510 c 0
 124 566 134 563 154 654 c 0
 154 662 153 669 153 669 c 0
 144 709 115 743 75 756 c 0
 75 757 75 807 75 807 c 0
 76 807 125 807 126 807 c 0
 166 794 204 761 205 720 c 0
 205 719 206 628 206 627 c 0
155 628 m 2
 155 627 l 2
 155 627 155 627 155 628 c 2
EndSplineSet
Validated: 1
EndChar

StartChar: asciitilde
Encoding: 126 126 94
Width: 707
VWidth: 0
Flags: HW
LayerCount: 2
Fore
SplineSet
90 316 m 1
 89 316 40 316 39 316 c 2
 39 368 l 2
 38 369 40 370 40 371 c 0
 40 372 42 373 41 374 c 0
 41 449 93 501 166 501 c 2
 217 501 l 1
 340 513 385 384 487 355 c 0
 488 355 505 353 518 351 c 0
 565 356 584 360 605 381 c 0
 605 382 621 420 621 421 c 2
 621 421 l 1
 627 441 l 2
 628 441 677 441 678 441 c 1
 678 440 678 391 678 390 c 2
 672 370 l 2
 672 369 657 331 657 330 c 0
 628 301 566 299 535 298 c 2
 483 298 l 2
 482 298 437 303 436 303 c 0
 340 330 321 422 198 450 c 1
 159 438 92 407 92 323 c 2
 92 323 l 2
 93 322 91 320 91 319 c 0
 91 318 89 317 90 316 c 1
EndSplineSet
Validated: 37
EndChar
